<svg version="1.1" xmlns="http://www.w3.org/2000/svg" viewBox="0 0 1344.40234375 1050.1953125" width="1344.40234375" height="1050.1953125">
  <!-- svg-source:excalidraw -->
  
  <defs>
    <style class="style-fonts">
      @font-face {
        font-family: "Virgil";
        src: url("https://excalidraw.com/Virgil.woff2");
      }
      @font-face {
        font-family: "Cascadia";
        src: url("https://excalidraw.com/Cascadia.woff2");
      }
    </style>
    
  </defs>
  <rect x="0" y="0" width="1344.40234375" height="1050.1953125" fill="#ffffff"></rect><g stroke-linecap="round" transform="translate(10 76.8046875) rotate(0 479.1718749999999 320.330078125)"><path d="M32 0 C247.93 -0.57, 462.39 -0.55, 926.34 0 M32 0 C336.55 -0.76, 641.12 -0.87, 926.34 0 M926.34 0 C948.8 1.15, 958.32 10.32, 958.34 32 M926.34 0 C948.7 -1.89, 956.96 9.37, 958.34 32 M958.34 32 C960.26 162.47, 959.71 292.34, 958.34 608.66 M958.34 32 C956.37 192.55, 956.47 353.51, 958.34 608.66 M958.34 608.66 C957.85 629.72, 946.29 640.14, 926.34 640.66 M958.34 608.66 C960.59 630.43, 947.51 638.46, 926.34 640.66 M926.34 640.66 C648.14 643.54, 370.49 643.12, 32 640.66 M926.34 640.66 C667.86 642.54, 409.27 643.05, 32 640.66 M32 640.66 C10.55 640.33, 1.81 631.01, 0 608.66 M32 640.66 C10.9 639.39, -0.78 631.64, 0 608.66 M0 608.66 C0.99 473.54, 0.31 337.99, 0 32 M0 608.66 C0.02 492.54, 0.15 376.82, 0 32 M0 32 C1.83 10.99, 9.25 -1.66, 32 0 M0 32 C0.3 10.11, 12.55 0.99, 32 0" stroke="#1e1e1e" stroke-width="1" fill="none"></path></g><g stroke-linecap="round" transform="translate(20.0078125 84.92578125) rotate(0 467.939453125 26.521484375)"><path d="M13.26 0 C349.67 -0.76, 684.57 -1.11, 922.62 0 M13.26 0 C198.91 2.51, 384.25 2.53, 922.62 0 M922.62 0 C931.96 0.6, 934.99 3.56, 935.88 13.26 M922.62 0 C930.91 0.84, 935.46 4.72, 935.88 13.26 M935.88 13.26 C934.54 19.97, 934.52 28.35, 935.88 39.78 M935.88 13.26 C936.9 20.16, 937.1 25.49, 935.88 39.78 M935.88 39.78 C936.49 49.14, 932.78 51.32, 922.62 53.04 M935.88 39.78 C935.94 49.58, 932.41 53.08, 922.62 53.04 M922.62 53.04 C574.16 50.08, 225.75 50.18, 13.26 53.04 M922.62 53.04 C636.27 52.2, 349.53 51.55, 13.26 53.04 M13.26 53.04 C3.12 54.55, 0.44 48.95, 0 39.78 M13.26 53.04 C4.67 51.82, -1.58 47.11, 0 39.78 M0 39.78 C-0.19 31.42, -1.89 26.35, 0 13.26 M0 39.78 C0.02 32.06, 0.17 25.32, 0 13.26 M0 13.26 C-1.85 4.93, 6.13 0.73, 13.26 0 M0 13.26 C-0.09 5.74, 2.59 -0.93, 13.26 0" stroke="#1e1e1e" stroke-width="1" fill="none"></path></g><g transform="translate(279.8828125 170.87890625) rotate(0 198.91790771484375 22.5)"><text x="0" y="0" font-family="Virgil, Segoe UI Emoji" font-size="36px" fill="#1e1e1e" text-anchor="start" style="white-space: pre;" direction="ltr" dominant-baseline="text-before-edge">Welcome to my website</text></g><g stroke-linecap="round" transform="translate(27.9921875 256.8046875) rotate(0 145.603515625 114.904296875)"><path d="M32 0 C97.24 0.94, 160.92 0.37, 259.21 0 M32 0 C95.75 -0.71, 159.15 -0.07, 259.21 0 M259.21 0 C278.79 -1.68, 291.41 11.47, 291.21 32 M259.21 0 C282.75 1.47, 292.14 12.9, 291.21 32 M291.21 32 C289.45 83.44, 291.31 135.72, 291.21 197.81 M291.21 32 C290.41 91.66, 290.2 151.14, 291.21 197.81 M291.21 197.81 C292.63 220.62, 282.03 231.69, 259.21 229.81 M291.21 197.81 C293.36 217.57, 279.68 229.52, 259.21 229.81 M259.21 229.81 C195.56 226.78, 131.87 228.98, 32 229.81 M259.21 229.81 C189.73 227.36, 121.79 228.18, 32 229.81 M32 229.81 C9.7 230.57, 1.76 218.77, 0 197.81 M32 229.81 C12.42 229.88, 0.83 219.66, 0 197.81 M0 197.81 C-0.76 145.29, -0.88 91.72, 0 32 M0 197.81 C-0.05 143.52, -0.23 88.31, 0 32 M0 32 C0.83 10.8, 11.4 -1.61, 32 0 M0 32 C-0.7 8.9, 12.2 -0.35, 32 0" stroke="#1e1e1e" stroke-width="1" fill="none"></path></g><g transform="translate(123.921875 324.4453125) rotate(0 25.02734375 33.701171875)" stroke="none"><path fill="#1e1e1e" d="M 0.31,1.58 Q 0.31,1.58 -0.98,1.89 -2.28,2.20 -3.34,3.44 -4.40,4.68 -5.65,7.39 -6.89,10.10 -7.48,12.93 -8.06,15.76 -5.77,19.09 -3.49,22.43 -1.29,24.41 0.90,26.38 10.53,27.65 20.16,28.92 25.70,29.24 31.25,29.56 34.51,28.92 37.78,28.27 39.33,26.70 40.88,25.12 41.00,23.57 41.12,22.01 37.77,22.91 34.41,23.82 31.99,25.37 29.57,26.91 27.96,29.97 26.36,33.03 26.38,35.07 26.41,37.10 29.90,39.75 33.38,42.41 36.03,44.51 38.68,46.60 40.18,47.96 41.68,49.32 42.84,50.50 44.01,51.68 44.46,53.31 44.91,54.93 49.45,57.33 53.99,59.72 60.24,60.93 66.49,62.14 72.19,61.91 77.89,61.69 82.52,58.02 87.16,54.35 89.12,52.10 91.09,49.85 90.30,44.87 89.51,39.89 83.60,33.28 77.69,26.67 68.85,22.25 60.01,17.83 50.46,15.41 40.91,12.98 29.60,14.62 18.29,16.25 12.37,17.74 6.45,19.24 0.87,23.73 -4.69,28.23 -7.09,30.24 -9.50,32.25 -7.87,33.90 -6.25,35.55 -3.36,35.81 -0.48,36.07 7.73,31.82 15.95,27.58 21.91,23.39 27.87,19.20 31.08,14.69 34.29,10.18 35.94,6.91 37.59,3.64 37.96,1.65 38.33,-0.33 38.27,-1.28 38.22,-2.22 38.28,-2.40 38.33,-2.58 38.43,-2.74 38.53,-2.90 38.67,-3.03 38.81,-3.16 38.97,-3.26 39.13,-3.35 39.31,-3.41 39.49,-3.46 39.68,-3.47 39.87,-3.48 40.06,-3.44 40.24,-3.41 40.41,-3.33 40.59,-3.25 40.73,-3.13 40.88,-3.01 41.00,-2.86 41.11,-2.71 41.19,-2.54 41.26,-2.36 41.29,-2.18 41.32,-1.99 41.31,-1.80 41.30,-1.61 39.02,-0.03 36.74,1.55 34.22,3.80 31.71,6.04 27.15,11.20 22.59,16.36 19.22,20.71 15.84,25.05 13.83,28.61 11.82,32.16 12.89,36.02 13.96,39.87 18.89,42.27 23.83,44.66 26.58,45.98 29.33,47.30 30.76,48.05 32.19,48.80 32.93,49.91 33.67,51.03 32.36,54.76 31.05,58.49 30.28,60.41 29.51,62.34 29.59,64.85 29.67,67.36 30.16,68.54 30.65,69.72 33.82,70.92 36.98,72.12 45.79,74.57 54.60,77.02 64.92,79.79 75.25,82.55 80.98,83.72 86.70,84.89 88.85,85.06 91.00,85.22 86.29,74.09 81.58,62.97 78.27,54.98 74.95,46.98 70.90,38.28 66.86,29.58 61.82,16.91 56.79,4.24 54.00,-2.63 51.21,-9.51 50.05,-12.53 48.88,-15.54 48.05,-16.13 47.21,-16.72 47.17,-16.91 47.12,-17.09 47.12,-17.29 47.11,-17.48 47.16,-17.67 47.20,-17.86 47.29,-18.03 47.38,-18.20 47.50,-18.35 47.63,-18.50 47.79,-18.61 47.95,-18.72 48.13,-18.79 48.31,-18.86 48.50,-18.89 48.69,-18.91 48.88,-18.89 49.08,-18.87 49.26,-18.80 49.44,-18.74 49.60,-18.63 49.76,-18.52 49.89,-18.38 50.02,-18.23 50.11,-18.06 50.21,-17.89 49.56,-16.43 48.92,-14.97 46.59,-9.80 44.26,-4.64 42.14,0.13 40.01,4.91 38.48,8.82 36.94,12.73 36.16,16.49 35.38,20.25 35.57,22.45 35.75,24.65 42.56,26.24 49.36,27.83 59.42,27.69 69.48,27.55 78.63,26.04 87.78,24.53 93.06,23.34 98.33,22.15 100.79,21.59 103.24,21.04 104.14,20.79 105.05,20.54 105.24,20.52 105.43,20.51 105.62,20.53 105.80,20.56 105.98,20.63 106.16,20.70 106.31,20.81 106.47,20.92 106.59,21.07 106.71,21.21 106.80,21.38 106.88,21.55 106.93,21.74 106.97,21.92 106.96,22.11 106.96,22.31 106.91,22.49 106.86,22.67 106.77,22.84 106.68,23.01 106.55,23.15 106.42,23.29 106.26,23.39 106.10,23.50 105.92,23.56 105.74,23.62 101.07,27.10 96.39,30.57 92.35,33.13 88.31,35.69 80.20,40.62 72.10,45.55 67.69,47.89 63.27,50.24 61.53,51.16 59.78,52.08 59.20,52.44 58.61,52.80 58.43,52.86 58.25,52.93 58.05,52.95 57.86,52.97 57.67,52.94 57.48,52.92 57.30,52.84 57.12,52.77 56.96,52.66 56.80,52.54 56.67,52.40 56.55,52.25 56.46,52.08 56.37,51.90 56.33,51.71 56.29,51.52 56.29,51.33 56.29,51.14 56.34,50.95 56.39,50.76 56.49,50.59 56.58,50.42 56.71,50.28 56.84,50.14 57.01,50.03 57.17,49.92 57.53,49.74 57.90,49.56 58.08,49.54 58.26,49.51 58.44,49.53 58.62,49.54 58.79,49.60 58.97,49.66 59.12,49.76 59.27,49.86 59.40,50.00 59.52,50.13 59.61,50.29 59.70,50.45 59.75,50.63 59.80,50.80 59.81,50.98 59.81,51.17 59.77,51.35 59.73,51.53 59.65,51.69 59.57,51.85 59.45,51.99 59.34,52.14 59.19,52.24 59.04,52.35 58.87,52.42 58.70,52.49 54.20,52.41 49.69,52.34 42.01,52.30 34.32,52.26 14.82,52.24 -4.67,52.22 -14.35,52.21 -24.02,52.20 -29.17,52.19 -34.33,52.18 -36.37,51.89 -38.41,51.60 -38.57,51.58 -38.73,51.56 -38.89,51.50 -39.04,51.44 -39.18,51.35 -39.31,51.25 -39.42,51.13 -39.53,51.01 -39.61,50.86 -39.68,50.72 -39.72,50.56 -39.76,50.40 -39.76,50.23 -39.76,50.07 -39.72,49.91 -39.68,49.75 -39.61,49.60 -39.53,49.46 -39.42,49.33 -39.31,49.21 -39.17,49.12 -39.04,49.02 -38.89,48.97 -38.73,48.91 -38.57,48.89 -38.41,48.87 -37.53,47.07 -36.65,45.27 -34.20,42.17 -31.76,39.07 -25.19,30.80 -18.62,22.53 -15.38,18.10 -12.13,13.67 -10.15,10.57 -8.16,7.47 -7.38,5.99 -6.60,4.50 -6.49,4.36 -6.37,4.22 -6.23,4.11 -6.08,4.01 -5.92,3.94 -5.75,3.87 -5.57,3.84 -5.40,3.81 -5.22,3.83 -5.04,3.84 -4.87,3.90 -4.70,3.96 -4.55,4.06 -4.40,4.15 -4.27,4.28 -4.15,4.41 -4.06,4.57 -3.97,4.73 -3.92,4.90 -3.87,5.07 -3.87,5.25 -3.86,5.43 -3.90,5.61 -3.93,5.78 -4.01,5.94 -4.09,6.11 -6.67,6.11 -9.24,6.12 -11.71,6.61 -14.17,7.10 -22.43,10.67 -30.68,14.23 -37.05,17.36 -43.41,20.49 -47.08,23.09 -50.76,25.69 -52.24,27.26 -53.72,28.84 -49.26,32.45 -44.81,36.05 -39.67,38.23 -34.53,40.41 -27.39,42.71 -20.26,45.01 -15.76,46.85 -11.27,48.70 -8.72,50.42 -6.18,52.15 -4.96,53.18 -3.74,54.21 -2.91,56.43 -2.08,58.66 -1.72,60.52 -1.37,62.39 0.80,66.25 2.98,70.11 5.66,72.63 8.35,75.15 13.43,76.16 18.52,77.18 23.11,76.96 27.70,76.75 34.80,71.88 41.89,67.02 45.37,64.37 48.86,61.73 53.07,54.23 57.28,46.73 59.08,41.06 60.89,35.39 61.47,31.87 62.04,28.34 61.91,26.80 61.78,25.27 61.14,24.26 60.50,23.25 59.34,22.04 58.19,20.84 57.36,18.98 56.54,17.12 56.40,16.05 56.27,14.98 56.67,12.52 57.07,10.05 57.21,9.67 57.35,9.29 57.61,8.98 57.87,8.66 58.21,8.45 58.56,8.24 58.95,8.14 59.35,8.05 59.75,8.09 60.16,8.12 60.53,8.29 60.90,8.45 61.20,8.73 61.49,9.00 61.69,9.36 61.89,9.71 61.96,10.11 62.03,10.51 61.97,10.91 61.91,11.31 61.73,11.67 61.54,12.04 61.25,12.32 60.96,12.60 60.60,12.78 60.23,12.95 59.83,13.00 59.43,13.05 59.03,12.97 58.63,12.89 58.28,12.69 57.93,12.48 57.66,12.18 57.39,11.87 57.24,11.50 57.08,11.13 57.05,10.72 57.03,10.32 57.13,9.92 57.23,9.53 57.45,9.19 57.68,8.85 58.00,8.60 58.31,8.35 58.70,8.22 59.08,8.08 59.48,8.08 59.89,8.07 60.28,8.19 60.66,8.32 60.99,8.56 61.32,8.80 61.55,9.13 61.78,9.46 61.90,9.85 62.01,10.24 61.99,10.65 61.98,11.05 61.98,11.05 61.98,11.05 61.56,12.86 61.15,14.66 61.10,16.01 61.06,17.36 61.71,18.64 62.35,19.92 62.94,20.86 63.53,21.80 64.14,23.44 64.75,25.08 64.71,26.92 64.67,28.77 64.06,32.48 63.44,36.20 61.53,42.13 59.62,48.05 55.09,55.94 50.56,63.82 46.99,66.56 43.43,69.30 35.74,74.39 28.05,79.48 23.00,79.73 17.94,79.99 12.24,78.70 6.53,77.42 3.42,74.54 0.32,71.66 -2.12,67.32 -4.56,62.97 -4.78,61.32 -5.00,59.66 -5.51,58.00 -6.03,56.35 -6.87,55.37 -7.72,54.40 -10.02,52.83 -12.33,51.26 -16.72,49.48 -21.12,47.70 -28.39,45.39 -35.66,43.08 -41.08,40.81 -46.51,38.53 -51.48,34.91 -56.46,31.30 -56.11,29.24 -55.76,27.18 -54.04,25.34 -52.32,23.50 -48.47,20.78 -44.62,18.06 -38.19,14.88 -31.77,11.71 -23.24,8.04 -14.71,4.37 -11.78,3.83 -8.85,3.30 -7.73,3.90 -6.60,4.50 -6.49,4.36 -6.37,4.22 -6.23,4.11 -6.08,4.01 -5.92,3.94 -5.75,3.87 -5.57,3.84 -5.40,3.81 -5.22,3.83 -5.04,3.84 -4.87,3.90 -4.70,3.96 -4.55,4.06 -4.40,4.15 -4.27,4.28 -4.15,4.41 -4.06,4.57 -3.97,4.73 -3.92,4.90 -3.87,5.07 -3.87,5.25 -3.86,5.43 -3.90,5.61 -3.93,5.78 -4.01,5.94 -4.09,6.11 -5.01,7.50 -5.94,8.90 -7.97,12.06 -10.00,15.23 -13.27,19.71 -16.55,24.18 -23.11,32.45 -29.67,40.72 -32.06,43.74 -34.44,46.77 -36.42,49.18 -38.41,51.60 -38.57,51.58 -38.73,51.56 -38.89,51.50 -39.04,51.44 -39.18,51.35 -39.31,51.25 -39.42,51.13 -39.53,51.01 -39.61,50.86 -39.68,50.72 -39.72,50.56 -39.76,50.40 -39.76,50.23 -39.76,50.07 -39.72,49.91 -39.68,49.75 -39.61,49.60 -39.53,49.46 -39.42,49.33 -39.31,49.21 -39.17,49.12 -39.04,49.02 -38.89,48.97 -38.73,48.91 -38.57,48.89 -38.41,48.87 -36.36,49.18 -34.32,49.50 -29.17,49.50 -24.01,49.49 -14.34,49.49 -4.67,49.48 14.82,49.48 34.33,49.48 42.03,49.49 49.73,49.50 53.81,49.53 57.89,49.56 58.08,49.54 58.26,49.51 58.44,49.53 58.62,49.54 58.79,49.60 58.97,49.66 59.12,49.76 59.27,49.86 59.40,50.00 59.52,50.13 59.61,50.29 59.70,50.45 59.75,50.63 59.80,50.80 59.81,50.98 59.81,51.17 59.77,51.35 59.73,51.53 59.65,51.69 59.57,51.85 59.45,51.99 59.34,52.13 59.19,52.24 59.04,52.35 58.87,52.42 58.70,52.49 58.66,52.64 58.61,52.80 58.43,52.86 58.25,52.93 58.05,52.95 57.86,52.97 57.67,52.94 57.48,52.92 57.30,52.84 57.12,52.77 56.96,52.66 56.80,52.55 56.67,52.40 56.55,52.25 56.46,52.08 56.37,51.90 56.33,51.71 56.29,51.52 56.29,51.33 56.29,51.14 56.34,50.95 56.39,50.76 56.49,50.59 56.58,50.42 56.71,50.28 56.84,50.14 57.01,50.03 57.17,49.92 57.85,49.76 58.53,49.59 60.29,48.75 62.04,47.91 66.38,45.61 70.73,43.30 78.81,38.38 86.90,33.46 90.84,30.96 94.79,28.46 99.92,24.50 105.05,20.54 105.24,20.52 105.43,20.51 105.62,20.53 105.80,20.56 105.98,20.63 106.16,20.70 106.31,20.81 106.47,20.92 106.59,21.07 106.71,21.21 106.80,21.38 106.88,21.55 106.93,21.74 106.97,21.92 106.96,22.11 106.96,22.31 106.91,22.49 106.86,22.67 106.77,22.84 106.68,23.01 106.55,23.15 106.42,23.29 106.26,23.39 106.10,23.50 105.92,23.56 105.74,23.62 104.78,23.63 103.82,23.63 101.37,24.18 98.92,24.74 93.57,25.95 88.22,27.16 78.87,28.70 69.52,30.23 59.11,30.34 48.71,30.46 41.47,28.43 34.23,26.40 33.44,23.08 32.65,19.76 33.47,15.74 34.29,11.71 35.81,7.72 37.33,3.74 39.40,-1.07 41.48,-5.88 44.35,-11.30 47.21,-16.72 47.17,-16.91 47.12,-17.09 47.12,-17.29 47.11,-17.48 47.16,-17.67 47.20,-17.86 47.29,-18.03 47.38,-18.20 47.50,-18.35 47.63,-18.50 47.79,-18.61 47.95,-18.72 48.13,-18.79 48.31,-18.86 48.50,-18.89 48.69,-18.91 48.88,-18.89 49.08,-18.87 49.26,-18.80 49.44,-18.74 49.60,-18.63 49.76,-18.52 49.89,-18.38 50.02,-18.23 50.11,-18.06 50.21,-17.89 50.77,-17.27 51.33,-16.66 52.54,-13.60 53.76,-10.55 56.57,-3.66 59.38,3.21 64.41,15.79 69.45,28.37 73.56,37.11 77.67,45.84 81.03,53.78 84.38,61.71 89.35,73.19 94.32,84.67 93.00,86.15 91.68,87.64 88.92,87.64 86.16,87.63 80.34,86.47 74.51,85.31 64.17,82.59 53.82,79.86 44.81,77.40 35.79,74.94 31.98,73.19 28.17,71.44 27.45,69.47 26.72,67.50 26.66,64.41 26.60,61.33 27.31,59.31 28.03,57.29 29.26,54.30 30.49,51.30 29.35,50.48 28.20,49.67 25.41,48.33 22.62,46.99 17.24,44.04 11.86,41.09 10.65,36.26 9.45,31.43 11.61,27.44 13.76,23.45 17.20,19.03 20.63,14.62 25.29,9.35 29.96,4.08 32.64,1.71 35.32,-0.65 36.77,-1.43 38.22,-2.22 38.28,-2.40 38.33,-2.58 38.43,-2.74 38.53,-2.90 38.67,-3.03 38.81,-3.16 38.97,-3.26 39.13,-3.35 39.31,-3.41 39.49,-3.46 39.68,-3.47 39.87,-3.48 40.06,-3.44 40.24,-3.41 40.41,-3.33 40.59,-3.25 40.73,-3.13 40.88,-3.01 41.00,-2.86 41.11,-2.71 41.19,-2.54 41.26,-2.36 41.29,-2.18 41.32,-1.99 41.31,-1.80 41.30,-1.61 41.10,-0.72 40.91,0.16 40.43,2.48 39.95,4.81 38.19,8.26 36.43,11.71 32.92,16.52 29.42,21.32 23.28,25.63 17.14,29.93 8.29,34.29 -0.54,38.64 -4.17,38.10 -7.80,37.57 -9.61,35.65 -11.42,33.73 -8.89,29.94 -6.36,26.16 -0.32,21.42 5.70,16.69 11.81,15.13 17.91,13.58 29.71,11.96 41.50,10.34 51.37,12.85 61.24,15.37 70.49,20.07 79.73,24.77 85.99,32.01 92.24,39.25 92.92,45.13 93.59,51.00 91.33,53.90 89.06,56.79 83.72,60.81 78.38,64.84 72.13,65.21 65.88,65.59 59.19,64.43 52.51,63.26 47.71,61.18 42.90,59.11 41.91,57.48 40.92,55.86 40.90,54.60 40.88,53.34 40.31,52.37 39.74,51.39 38.37,50.06 37.00,48.73 34.32,46.63 31.65,44.54 27.81,41.22 23.98,37.90 23.89,34.88 23.80,31.86 25.83,28.22 27.85,24.58 30.57,22.78 33.30,20.98 36.99,19.67 40.69,18.36 42.20,20.07 43.71,21.78 43.31,24.24 42.92,26.71 40.72,28.76 38.53,30.81 34.82,31.55 31.11,32.30 25.44,31.98 19.77,31.67 9.52,30.15 -0.72,28.62 -3.32,26.32 -5.92,24.03 -8.42,19.92 -10.92,15.80 -10.35,12.30 -9.79,8.80 -8.33,5.60 -6.88,2.40 -5.10,0.64 -3.31,-1.10 -1.81,-1.34 -0.31,-1.58 -0.11,-1.59 0.07,-1.61 0.26,-1.58 0.46,-1.54 0.64,-1.47 0.81,-1.39 0.97,-1.27 1.12,-1.15 1.25,-1.00 1.37,-0.85 1.45,-0.67 1.53,-0.49 1.57,-0.30 1.61,-0.11 1.60,0.07 1.59,0.27 1.53,0.45 1.48,0.64 1.38,0.81 1.28,0.98 1.14,1.12 1.01,1.25 0.84,1.36 0.68,1.46 0.49,1.52 0.31,1.58 0.31,1.58 L 0.31,1.58 Z"></path></g><g stroke-linecap="round" transform="translate(343.13671875 257.03515625) rotate(0 145.603515625 114.904296875)"><path d="M32 0 C117.3 -1.39, 203.24 -1.34, 259.21 0 M32 0 C105.12 -1.88, 177.31 -2.61, 259.21 0 M259.21 0 C282.53 0.15, 292.91 11.81, 291.21 32 M259.21 0 C281.6 1.78, 290.63 9.9, 291.21 32 M291.21 32 C290.88 91.15, 292.13 149.69, 291.21 197.81 M291.21 32 C289.58 71.01, 288.96 109.6, 291.21 197.81 M291.21 197.81 C290.11 217.32, 282.47 231.75, 259.21 229.81 M291.21 197.81 C292.98 217.17, 280.86 230.81, 259.21 229.81 M259.21 229.81 C211.92 230.04, 162.15 231.2, 32 229.81 M259.21 229.81 C210.32 229.73, 160.72 229.56, 32 229.81 M32 229.81 C12.02 229.49, -1.68 218.7, 0 197.81 M32 229.81 C12.3 229.97, 0.54 218.31, 0 197.81 M0 197.81 C1.47 158.6, 0.95 122.58, 0 32 M0 197.81 C-0.04 158.04, 0.8 119.26, 0 32 M0 32 C1.53 10.42, 11.96 -0.03, 32 0 M0 32 C1.64 9.35, 12.45 0.94, 32 0" stroke="#1e1e1e" stroke-width="1" fill="none"></path></g><g transform="translate(513.4765625 286.53125) rotate(0 -24.5546875 75.544921875)" stroke="none"><path fill="#1e1e1e" d="M 1.22,0.97 Q 1.22,0.97 -1.35,4.13 -3.92,7.30 -5.93,10.48 -7.94,13.66 -10.32,18.86 -12.71,24.07 -15.87,32.14 -19.02,40.21 -20.83,48.46 -22.65,56.70 -23.42,63.47 -24.19,70.23 -23.64,73.80 -23.09,77.38 -21.25,78.68 -19.40,79.98 -13.87,79.02 -8.34,78.05 -2.73,76.10 2.87,74.15 9.98,68.82 17.09,63.50 20.28,60.96 23.48,58.43 24.55,54.91 25.62,51.40 24.37,49.51 23.12,47.62 18.80,46.40 14.48,45.19 7.58,45.41 0.69,45.64 -7.05,47.65 -14.81,49.66 -23.85,56.67 -32.89,63.67 -36.91,68.53 -40.93,73.40 -41.64,75.66 -42.35,77.93 -39.54,78.82 -36.73,79.71 -35.52,79.64 -34.30,79.58 -33.16,80.10 -32.01,80.63 -31.60,81.73 -31.19,82.83 -29.91,83.16 -28.64,83.48 -28.02,82.29 -27.40,81.09 -27.59,79.29 -27.78,77.50 -28.49,75.71 -29.21,73.92 -32.58,71.51 -35.96,69.10 -39.27,67.36 -42.58,65.61 -48.79,65.25 -55.00,64.89 -61.88,67.57 -68.76,70.26 -74.77,76.12 -80.78,81.99 -83.70,87.51 -86.62,93.03 -85.35,99.80 -84.09,106.58 -79.80,112.27 -75.51,117.97 -65.02,122.70 -54.52,127.43 -45.11,130.97 -35.70,134.51 -21.84,138.50 -7.99,142.49 1.11,144.58 10.21,146.68 20.25,147.01 30.29,147.33 35.48,146.74 40.66,146.14 42.84,142.94 45.03,139.74 45.99,136.02 46.96,132.29 45.80,128.07 44.63,123.85 41.89,118.96 39.14,114.07 34.13,109.13 29.13,104.19 20.57,99.63 12.01,95.07 -3.56,92.40 -19.15,89.72 -31.46,90.50 -43.77,91.27 -52.19,93.20 -60.61,95.12 -66.16,96.68 -71.71,98.24 -74.11,98.81 -76.51,99.37 -77.92,99.41 -79.33,99.44 -80.23,98.71 -81.13,97.98 -81.55,96.72 -81.97,95.47 -81.17,92.43 -80.38,89.38 -79.94,88.04 -79.50,86.70 -79.01,82.91 -78.52,79.12 -78.26,73.45 -78.00,67.79 -77.86,62.84 -77.73,57.89 -77.80,55.54 -77.87,53.20 -79.86,48.75 -81.86,44.29 -83.38,42.54 -84.90,40.79 -86.97,40.90 -89.04,41.01 -90.90,42.03 -92.77,43.05 -94.02,43.99 -95.27,44.94 -95.97,45.95 -96.68,46.96 -96.39,47.23 -96.09,47.51 -96.25,47.69 -96.40,47.87 -96.59,48.02 -96.78,48.16 -97.01,48.25 -97.23,48.34 -97.46,48.38 -97.70,48.41 -97.94,48.39 -98.17,48.37 -98.40,48.29 -98.63,48.22 -98.83,48.09 -99.03,47.96 -99.19,47.78 -99.36,47.61 -99.47,47.40 -99.59,47.19 -99.66,46.96 -99.72,46.73 -99.73,46.49 -99.74,46.25 -99.69,46.02 -99.64,45.79 -99.53,45.57 -99.43,45.36 -98.83,44.93 -98.24,44.51 -97.92,44.48 -97.60,44.46 -97.29,44.53 -96.98,44.61 -96.71,44.78 -96.44,44.96 -96.24,45.21 -96.03,45.46 -95.92,45.76 -95.81,46.06 -95.80,46.38 -95.80,46.70 -95.89,47.01 -95.98,47.31 -96.17,47.57 -96.36,47.83 -96.62,48.02 -96.88,48.21 -97.19,48.30 -97.49,48.40 -97.81,48.39 -98.13,48.38 -98.44,48.27 -98.74,48.16 -98.99,47.96 -99.24,47.76 -99.41,47.49 -99.58,47.22 -99.66,46.90 -99.74,46.59 -99.71,46.27 -99.68,45.95 -99.56,45.66 -99.43,45.36 -99.22,45.13 -99.00,44.89 -98.72,44.73 -98.44,44.57 -98.13,44.51 -97.81,44.45 -97.50,44.49 -97.18,44.54 -96.89,44.68 -96.60,44.82 -96.38,45.05 -96.15,45.28 -96.01,45.56 -95.87,45.85 -95.82,46.17 -95.78,46.49 -95.84,46.80 -95.90,47.12 -96.06,47.40 -96.22,47.67 -96.45,47.89 -96.69,48.10 -96.39,47.81 -96.09,47.51 -96.25,47.69 -96.40,47.87 -96.59,48.02 -96.78,48.16 -97.01,48.25 -97.23,48.34 -97.46,48.38 -97.70,48.41 -97.94,48.39 -98.17,48.37 -98.40,48.29 -98.63,48.22 -98.83,48.09 -99.03,47.96 -99.19,47.78 -99.36,47.61 -99.47,47.40 -99.59,47.19 -99.66,46.96 -99.72,46.73 -99.73,46.49 -99.74,46.26 -99.69,46.02 -99.64,45.79 -99.53,45.57 -99.43,45.36 -99.69,45.11 -99.95,44.85 -98.47,43.62 -96.99,42.38 -95.51,41.49 -94.02,40.60 -91.59,39.43 -89.16,38.25 -86.31,38.41 -83.46,38.56 -81.32,40.81 -79.19,43.06 -77.01,48.02 -74.82,52.98 -74.65,55.46 -74.49,57.94 -74.51,62.92 -74.54,67.90 -74.65,73.71 -74.77,79.53 -75.16,83.81 -75.56,88.10 -76.10,89.46 -76.63,90.81 -77.37,92.79 -78.11,94.77 -77.61,95.79 -77.10,96.81 -74.76,96.26 -72.42,95.72 -66.80,94.14 -61.19,92.56 -52.56,90.61 -43.93,88.65 -31.32,87.89 -18.71,87.13 -2.75,89.94 13.21,92.74 22.08,97.52 30.96,102.31 36.19,107.54 41.42,112.77 44.30,117.97 47.17,123.18 48.34,127.99 49.50,132.80 48.34,137.02 47.18,141.24 44.37,144.84 41.55,148.43 35.88,149.20 30.21,149.98 19.92,149.62 9.62,149.27 0.45,147.15 -8.72,145.04 -22.68,141.03 -36.64,137.01 -46.14,133.44 -55.64,129.87 -66.60,124.78 -77.56,119.69 -82.15,113.43 -86.74,107.17 -87.95,99.63 -89.15,92.10 -85.97,86.04 -82.79,79.97 -76.35,73.77 -69.90,67.57 -62.42,64.71 -54.93,61.85 -48.08,62.28 -41.22,62.71 -37.58,64.52 -33.94,66.32 -29.95,69.27 -25.95,72.21 -24.82,74.62 -23.68,77.03 -23.42,79.91 -23.15,82.79 -24.40,84.87 -25.65,86.94 -27.62,87.44 -29.60,87.94 -31.03,87.37 -32.47,86.80 -33.46,84.88 -34.45,82.96 -35.79,82.80 -37.12,82.64 -40.18,82.06 -43.24,81.48 -44.04,79.54 -44.83,77.60 -43.91,74.69 -42.98,71.79 -38.74,66.69 -34.50,61.59 -25.02,54.37 -15.54,47.15 -7.46,45.08 0.60,43.01 7.91,42.84 15.21,42.67 20.11,44.32 25.00,45.97 26.53,48.72 28.05,51.47 26.66,55.87 25.27,60.27 21.97,62.94 18.67,65.62 11.22,71.12 3.77,76.63 -2.08,78.65 -7.94,80.68 -14.17,81.47 -20.41,82.26 -22.93,80.27 -25.45,78.28 -26.16,74.12 -26.88,69.95 -26.09,63.04 -25.31,56.12 -23.46,47.67 -21.60,39.22 -18.44,31.06 -15.28,22.90 -12.83,17.51 -10.39,12.13 -8.32,8.78 -6.26,5.43 -3.74,2.23 -1.22,-0.97 -1.08,-1.10 -0.95,-1.23 -0.78,-1.33 -0.62,-1.43 -0.44,-1.48 -0.26,-1.53 -0.07,-1.54 0.10,-1.55 0.29,-1.52 0.47,-1.48 0.65,-1.40 0.82,-1.32 0.96,-1.21 1.11,-1.09 1.23,-0.94 1.34,-0.79 1.42,-0.62 1.49,-0.44 1.52,-0.26 1.56,-0.07 1.54,0.10 1.53,0.29 1.47,0.47 1.41,0.65 1.31,0.81 1.21,0.97 1.21,0.97 L 1.22,0.97 Z"></path></g><g stroke-linecap="round" transform="translate(656.52734375 255.0625) rotate(0 145.603515625 114.904296875)"><path d="M32 0 C122.26 -1.24, 210.95 -3.17, 259.21 0 M32 0 C87.32 1.77, 142.02 0.6, 259.21 0 M259.21 0 C278.57 -0.83, 291.68 8.94, 291.21 32 M259.21 0 C281.72 1.64, 292.7 9.04, 291.21 32 M291.21 32 C289.41 71.3, 291.08 110.41, 291.21 197.81 M291.21 32 C291.29 80.74, 289.88 129.42, 291.21 197.81 M291.21 197.81 C292.88 219.57, 279.17 228.29, 259.21 229.81 M291.21 197.81 C290.56 217.98, 279.5 229.71, 259.21 229.81 M259.21 229.81 C189.83 231.11, 119.57 231.75, 32 229.81 M259.21 229.81 C203.3 228.83, 149.16 228.75, 32 229.81 M32 229.81 C8.8 228.69, 1.37 217.18, 0 197.81 M32 229.81 C8.65 228.06, -0.35 219.86, 0 197.81 M0 197.81 C-3.14 132.43, -0.22 67.25, 0 32 M0 197.81 C0.47 160.99, 1.06 124.8, 0 32 M0 32 C-1.92 10.46, 9.45 -1.05, 32 0 M0 32 C1.31 10.04, 11.36 0.71, 32 0" stroke="#1e1e1e" stroke-width="1" fill="none"></path></g><g transform="translate(816.05859375 358.1328125) rotate(0 -57.5 6.12109375)" stroke="none"><path fill="#1e1e1e" d="M -0.85,1.30 Q -0.85,1.30 -2.95,-0.11 -5.06,-1.53 -13.20,-4.13 -21.35,-6.72 -29.70,-8.34 -38.05,-9.96 -52.86,-11.05 -67.66,-12.15 -83.21,-11.29 -98.76,-10.44 -112.99,-6.39 -127.22,-2.34 -134.46,0.90 -141.70,4.14 -145.38,10.31 -149.06,16.48 -146.97,23.68 -144.88,30.88 -139.42,36.82 -133.97,42.76 -123.72,47.11 -113.48,51.45 -92.99,53.98 -72.49,56.51 -47.51,49.99 -22.52,43.46 -9.23,37.60 4.05,31.73 11.25,24.90 18.44,18.07 21.78,13.82 25.12,9.56 26.92,3.89 28.71,-1.77 29.49,-6.69 30.28,-11.61 30.03,-14.75 29.79,-17.89 29.26,-19.55 28.73,-21.20 26.50,-20.94 24.27,-20.68 20.89,-17.71 17.51,-14.74 15.09,-11.69 12.68,-8.64 12.54,-5.95 12.39,-3.26 15.54,-2.90 18.68,-2.54 21.35,-3.42 24.02,-4.29 28.20,-8.61 32.38,-12.94 34.48,-16.61 36.59,-20.28 37.32,-23.22 38.05,-26.16 37.73,-27.82 37.42,-29.49 35.94,-30.47 34.47,-31.45 30.85,-30.87 27.23,-30.29 24.29,-29.68 21.34,-29.06 19.80,-28.71 18.25,-28.35 17.96,-24.48 17.67,-20.60 17.56,-13.56 17.44,-6.52 17.37,-2.58 17.30,1.35 17.26,4.26 17.22,7.18 17.31,8.52 17.41,9.87 17.39,10.08 17.36,10.28 17.29,10.47 17.22,10.66 17.10,10.83 16.98,11.00 16.83,11.14 16.67,11.27 16.49,11.37 16.31,11.46 16.11,11.51 15.91,11.56 15.70,11.56 15.50,11.56 15.30,11.51 15.10,11.46 14.92,11.36 14.73,11.27 14.58,11.13 14.43,10.99 14.31,10.82 14.20,10.65 14.12,10.46 14.05,10.27 14.03,10.07 14.00,9.86 14.42,3.88 14.83,-2.10 15.02,-5.71 15.21,-9.32 13.85,-15.58 12.50,-21.84 9.60,-28.58 6.71,-35.32 4.69,-38.99 2.67,-42.67 1.56,-44.32 0.46,-45.98 -0.77,-45.53 -2.01,-45.09 -2.27,-44.96 -2.52,-44.83 -2.81,-44.78 -3.10,-44.74 -3.38,-44.79 -3.66,-44.84 -3.92,-44.98 -4.17,-45.12 -4.37,-45.33 -4.56,-45.55 -4.68,-45.81 -4.80,-46.07 -4.82,-46.36 -4.85,-46.65 -4.79,-46.93 -4.72,-47.21 -4.57,-47.46 -4.41,-47.70 -4.19,-47.89 -3.97,-48.07 -3.70,-48.17 -3.43,-48.28 -3.14,-48.29 -2.85,-48.30 -2.57,-48.22 -2.30,-48.14 -2.06,-47.97 -1.82,-47.81 -1.65,-47.57 -1.48,-47.34 -1.39,-47.06 -1.30,-46.79 -1.31,-46.50 -1.31,-46.21 -1.41,-45.94 -1.50,-45.67 -1.68,-45.44 -1.86,-45.21 -2.10,-45.05 -2.34,-44.89 -2.62,-44.82 -2.90,-44.75 -3.19,-44.77 -3.48,-44.79 -3.75,-44.90 -4.01,-45.01 -4.23,-45.20 -4.45,-45.39 -4.59,-45.64 -4.74,-45.89 -4.80,-46.17 -4.85,-46.46 -4.82,-46.74 -4.78,-47.03 -4.66,-47.29 -4.53,-47.55 -4.33,-47.76 -4.13,-47.96 -4.13,-47.96 -4.13,-47.96 -1.87,-48.57 0.38,-49.17 1.49,-48.41 2.59,-47.66 3.85,-45.84 5.10,-44.02 7.22,-40.23 9.33,-36.45 12.34,-29.46 15.35,-22.48 16.80,-15.85 18.25,-9.22 18.14,-5.55 18.02,-1.88 17.72,3.99 17.41,9.87 17.39,10.08 17.36,10.28 17.29,10.47 17.22,10.66 17.10,10.83 16.98,11.00 16.83,11.14 16.67,11.27 16.49,11.37 16.31,11.46 16.11,11.51 15.91,11.56 15.70,11.56 15.50,11.56 15.30,11.51 15.10,11.46 14.92,11.36 14.73,11.27 14.58,11.13 14.43,10.99 14.31,10.82 14.20,10.65 14.12,10.46 14.05,10.27 14.03,10.07 14.00,9.86 14.11,8.51 14.21,7.17 14.19,4.25 14.16,1.34 14.14,-2.60 14.11,-6.54 14.09,-13.64 14.08,-20.74 14.13,-24.00 14.18,-27.25 14.83,-28.92 15.48,-30.59 16.58,-31.09 17.68,-31.59 19.19,-31.77 20.71,-31.95 23.55,-32.60 26.38,-33.25 30.05,-34.18 33.71,-35.11 34.93,-34.37 36.15,-33.63 38.02,-32.02 39.89,-30.42 40.32,-28.00 40.74,-25.59 39.90,-22.24 39.06,-18.89 36.76,-14.91 34.47,-10.92 29.79,-6.22 25.11,-1.52 22.05,-0.46 18.98,0.59 15.30,0.83 11.61,1.08 10.49,-1.16 9.37,-3.41 9.70,-6.86 10.03,-10.31 12.64,-13.81 15.25,-17.30 19.19,-20.74 23.13,-24.18 25.28,-24.72 27.44,-25.26 28.74,-24.78 30.05,-24.31 30.75,-23.16 31.44,-22.02 31.93,-20.05 32.41,-18.09 32.64,-14.65 32.87,-11.21 32.04,-6.09 31.21,-0.96 29.21,5.08 27.22,11.14 23.73,15.56 20.25,19.98 12.70,27.05 5.15,34.11 -8.34,40.06 -21.85,46.01 -47.30,52.57 -72.75,59.13 -93.62,56.51 -114.49,53.89 -125.17,49.24 -135.84,44.60 -141.61,38.15 -147.38,31.69 -149.41,23.72 -151.43,15.75 -147.22,8.82 -143.02,1.88 -135.49,-1.52 -127.96,-4.93 -113.45,-9.04 -98.93,-13.16 -83.20,-14.03 -67.47,-14.91 -52.50,-13.82 -37.52,-12.73 -29.00,-11.10 -20.47,-9.48 -11.96,-6.76 -3.45,-4.04 -1.29,-2.67 0.85,-1.30 1.00,-1.18 1.14,-1.06 1.25,-0.91 1.36,-0.75 1.43,-0.58 1.50,-0.40 1.53,-0.22 1.56,-0.03 1.54,0.15 1.52,0.33 1.46,0.51 1.39,0.69 1.29,0.85 1.19,1.00 1.05,1.13 0.91,1.26 0.75,1.35 0.58,1.44 0.40,1.49 0.22,1.54 0.03,1.55 -0.15,1.55 -0.33,1.51 -0.51,1.47 -0.68,1.38 -0.85,1.30 -0.85,1.30 L -0.85,1.30 Z"></path></g><g transform="translate(744.01171875 314.6171875) rotate(0 102.216796875 68.134765625)" stroke="none"><path fill="#1e1e1e" d="M 1.61,0 Q 1.61,0 1.70,1.34 1.79,2.69 1.73,6.11 1.66,9.53 1.61,11.92 1.56,14.31 1.53,24.24 1.49,34.18 1.47,44.26 1.44,54.35 1.43,64.51 1.41,74.66 2.20,85.47 2.99,96.28 3.96,104.78 4.93,113.27 5.35,118.30 5.76,123.33 6.12,126.31 6.48,129.29 6.70,131.16 6.91,133.04 7.17,134.20 7.44,135.36 7.43,135.58 7.42,135.79 7.36,136.00 7.29,136.20 7.19,136.39 7.08,136.58 6.93,136.73 6.78,136.88 6.60,137.00 6.41,137.11 6.21,137.18 6.01,137.24 5.79,137.26 5.58,137.28 5.37,137.24 5.15,137.20 4.96,137.12 4.76,137.03 4.59,136.90 4.42,136.77 4.28,136.61 4.15,136.44 4.06,136.24 3.97,136.05 3.92,135.84 3.88,135.63 4.43,134.64 4.97,133.66 5.94,132.60 6.92,131.54 8.57,130.25 10.22,128.96 12.37,127.59 14.52,126.23 24.76,119.42 35.00,112.61 40.44,108.64 45.88,104.67 59.19,93.69 72.50,82.70 89.12,67.08 105.74,51.46 117.05,40.59 128.35,29.72 134.27,24.00 140.18,18.28 143.18,15.17 146.17,12.07 147.41,10.62 148.64,9.18 149.20,8.49 149.77,7.80 149.92,7.67 150.07,7.53 150.25,7.44 150.42,7.35 150.62,7.30 150.82,7.25 151.02,7.25 151.22,7.25 151.41,7.30 151.61,7.35 151.79,7.44 151.96,7.54 152.11,7.67 152.27,7.81 152.38,7.97 152.49,8.14 152.56,8.33 152.64,8.51 152.66,8.71 152.68,8.91 152.66,9.11 152.63,9.31 152.56,9.50 152.49,9.69 152.38,9.85 152.26,10.02 154.67,13.90 157.08,17.77 160.76,25.13 164.44,32.49 170.24,42.14 176.03,51.80 180.51,58.73 184.98,65.66 189.95,72.34 194.91,79.02 197.72,82.56 200.53,86.10 201.76,87.72 202.99,89.34 203.80,90.15 204.61,90.95 204.85,91.09 205.09,91.23 205.20,91.40 205.31,91.58 205.38,91.77 205.44,91.97 205.46,92.18 205.47,92.39 205.44,92.59 205.40,92.80 205.32,92.99 205.24,93.18 205.11,93.34 204.99,93.51 204.82,93.64 204.66,93.77 204.47,93.85 204.29,93.94 204.08,93.98 203.88,94.02 203.67,94.01 203.46,94.00 203.27,93.94 203.07,93.89 202.89,93.78 202.71,93.68 202.56,93.53 202.41,93.39 201.08,91.17 199.75,88.95 198.83,87.85 197.91,86.75 189.80,80.52 181.69,74.29 171.07,67.12 160.46,59.95 154.56,56.05 148.67,52.16 129.81,41.68 110.96,31.19 98.52,24.27 86.08,17.35 77.72,13.14 69.35,8.93 64.45,6.87 59.55,4.81 57.14,3.78 54.73,2.74 52.94,2.01 51.15,1.29 50.95,1.16 50.76,1.04 50.61,0.86 50.47,0.68 50.39,0.47 50.31,0.25 50.30,0.02 50.30,-0.20 50.36,-0.42 50.43,-0.64 50.57,-0.83 50.70,-1.01 50.89,-1.15 51.07,-1.28 51.29,-1.35 51.51,-1.42 51.74,-1.41 51.97,-1.41 52.19,-1.33 52.40,-1.25 52.58,-1.11 52.76,-0.96 52.89,-0.77 53.01,-0.57 53.07,-0.35 53.12,-0.13 53.10,0.09 53.09,0.32 53.00,0.53 52.90,0.74 52.75,0.91 52.60,1.09 52.40,1.20 52.20,1.31 51.97,1.36 51.75,1.40 51.52,1.37 51.29,1.34 51.08,1.24 50.88,1.14 50.72,0.97 50.55,0.81 50.45,0.60 50.35,0.40 50.32,0.17 50.28,-0.05 50.33,-0.27 50.37,-0.50 50.48,-0.70 50.60,-0.90 50.77,-1.05 50.94,-1.21 51.15,-1.30 51.36,-1.39 51.59,-1.41 51.82,-1.43 52.04,-1.37 52.27,-1.32 52.27,-1.32 52.27,-1.32 54.03,-0.52 55.79,0.27 58.19,1.29 60.59,2.31 65.59,4.39 70.58,6.47 79.01,10.69 87.43,14.91 99.89,21.80 112.34,28.70 131.31,39.20 150.27,49.70 156.22,53.56 162.16,57.42 172.90,64.58 183.63,71.75 192.14,78.22 200.64,84.70 201.49,85.99 202.33,87.28 203.71,89.25 205.09,91.23 205.20,91.40 205.31,91.58 205.38,91.77 205.44,91.97 205.46,92.18 205.47,92.39 205.44,92.59 205.40,92.79 205.32,92.99 205.24,93.18 205.11,93.34 204.99,93.51 204.82,93.64 204.66,93.77 204.47,93.85 204.29,93.94 204.08,93.98 203.88,94.02 203.67,94.01 203.46,94.00 203.27,93.94 203.07,93.89 202.89,93.78 202.71,93.68 202.56,93.53 202.41,93.39 202.25,93.19 202.09,93.00 201.44,91.99 200.78,90.98 199.61,89.37 198.44,87.75 195.60,84.18 192.76,80.61 187.74,73.87 182.72,67.13 178.21,60.16 173.70,53.20 167.84,43.46 161.98,33.72 158.28,26.38 154.58,19.04 152.17,13.42 149.77,7.80 149.92,7.67 150.07,7.53 150.25,7.44 150.42,7.35 150.62,7.30 150.81,7.25 151.02,7.25 151.22,7.25 151.41,7.30 151.61,7.35 151.79,7.44 151.96,7.54 152.11,7.67 152.27,7.81 152.38,7.97 152.49,8.14 152.56,8.32 152.64,8.51 152.66,8.71 152.68,8.91 152.66,9.11 152.63,9.31 152.56,9.50 152.49,9.69 152.38,9.85 152.26,10.02 151.52,10.55 150.78,11.09 149.45,12.52 148.13,13.95 145.11,17.10 142.09,20.24 136.19,25.98 130.28,31.73 118.99,42.63 107.69,53.53 91.03,69.24 74.36,84.96 61.02,96.04 47.68,107.12 42.23,111.19 36.78,115.26 26.59,122.16 16.41,129.05 14.48,130.43 12.55,131.81 11.11,133.05 9.67,134.30 8.55,134.83 7.44,135.36 7.43,135.58 7.42,135.79 7.36,136.00 7.29,136.20 7.19,136.39 7.08,136.58 6.93,136.73 6.78,136.88 6.60,137.00 6.41,137.11 6.21,137.18 6.01,137.24 5.79,137.26 5.58,137.28 5.37,137.24 5.15,137.20 4.96,137.12 4.76,137.03 4.59,136.90 4.42,136.77 4.28,136.61 4.15,136.44 4.06,136.24 3.97,136.05 3.92,135.84 3.88,135.63 3.96,134.46 4.03,133.28 3.93,131.45 3.82,129.61 3.45,126.58 3.07,123.55 2.64,118.57 2.22,113.59 1.23,105.03 0.23,96.48 -0.58,85.57 -1.41,74.66 -1.43,64.51 -1.44,54.35 -1.47,44.26 -1.49,34.18 -1.53,24.24 -1.56,14.31 -1.61,11.92 -1.66,9.53 -1.73,6.11 -1.79,2.69 -1.70,1.34 -1.61,0 -1.58,-0.19 -1.56,-0.38 -1.49,-0.56 -1.42,-0.74 -1.31,-0.90 -1.20,-1.06 -1.06,-1.19 -0.91,-1.32 -0.74,-1.41 -0.57,-1.50 -0.38,-1.55 -0.19,-1.60 0.00,-1.60 0.19,-1.60 0.38,-1.55 0.57,-1.50 0.74,-1.41 0.91,-1.32 1.06,-1.19 1.20,-1.06 1.31,-0.90 1.42,-0.74 1.49,-0.56 1.56,-0.38 1.58,-0.19 1.61,0.00 1.61,0.00 L 1.61,0 Z"></path></g><g transform="translate(38.72265625 11.828125) rotate(0 120.68994903564453 22.5)"><text x="0" y="0" font-family="Virgil, Segoe UI Emoji" font-size="36px" fill="#1e1e1e" text-anchor="start" style="white-space: pre;" direction="ltr" dominant-baseline="text-before-edge">Wide (Laptop)</text></g><g stroke-linecap="round" transform="translate(990.25 73.87109375) rotate(0 172.076171875 483.162109375)"><path d="M32 0 C125.45 0.03, 218.37 1.45, 312.15 0 M32 0 C115.65 -1.75, 198.91 -2.03, 312.15 0 M312.15 0 C331.63 -0.41, 346.15 10.35, 344.15 32 M312.15 0 C332.58 -0.84, 345.74 10.19, 344.15 32 M344.15 32 C346.63 287.9, 347.61 542.86, 344.15 934.32 M344.15 32 C341.57 274.16, 340.98 515.88, 344.15 934.32 M344.15 934.32 C344.22 954.28, 333.65 967.52, 312.15 966.32 M344.15 934.32 C345.2 956.39, 335.41 965.75, 312.15 966.32 M312.15 966.32 C218.36 964.1, 124.6 966.46, 32 966.32 M312.15 966.32 C230.59 966.52, 147.2 967.44, 32 966.32 M32 966.32 C11.45 965.63, -0.74 954.25, 0 934.32 M32 966.32 C9.9 968, -1.63 956.06, 0 934.32 M0 934.32 C-2.07 718.2, -2.1 502.44, 0 32 M0 934.32 C1.14 674.53, 0.68 415.2, 0 32 M0 32 C1.91 12.2, 10.01 -0.4, 32 0 M0 32 C2.11 12.42, 12.5 0.24, 32 0" stroke="#1e1e1e" stroke-width="1" fill="none"></path></g><g transform="translate(1011.2845916748047 10) rotate(0 131.5799560546875 22.5)"><text x="0" y="0" font-family="Virgil, Segoe UI Emoji" font-size="36px" fill="#1e1e1e" text-anchor="start" style="white-space: pre;" direction="ltr" dominant-baseline="text-before-edge">Narrow (Phone)</text></g><g stroke-linecap="round" transform="translate(1000.095703125 87.052734375) rotate(0 163.1093749999999 26.521484375)"><path d="M13.26 0 C128.8 3.06, 244.4 1.98, 312.96 0 M13.26 0 C84.33 -1.1, 154.54 -1.63, 312.96 0 M312.96 0 C321.12 0.06, 325.74 5.77, 326.22 13.26 M312.96 0 C322.64 0.37, 325.86 5.16, 326.22 13.26 M326.22 13.26 C325.59 20.91, 324.64 29.6, 326.22 39.78 M326.22 13.26 C326.85 24.44, 325.84 34.23, 326.22 39.78 M326.22 39.78 C326.63 50.52, 322.06 51.34, 312.96 53.04 M326.22 39.78 C327.37 49.7, 322.57 53.7, 312.96 53.04 M312.96 53.04 C243.14 51.66, 171.2 53.18, 13.26 53.04 M312.96 53.04 C206.17 51.98, 100.53 51.96, 13.26 53.04 M13.26 53.04 C5.96 51.56, -1.23 46.94, 0 39.78 M13.26 53.04 C2.24 54.24, -0.59 49.7, 0 39.78 M0 39.78 C0.12 32.03, 0.11 22.95, 0 13.26 M0 39.78 C-0.25 30.85, -0.34 21.07, 0 13.26 M0 13.26 C1.1 3.92, 5.71 -1.71, 13.26 0 M0 13.26 C-1.88 3.95, 5.22 -0.44, 13.26 0" stroke="#1e1e1e" stroke-width="1" fill="none"></path></g><g transform="translate(1083.4961547851562 169.0625) rotate(0 82.75398254394531 35)"><text x="0" y="0" font-family="Virgil, Segoe UI Emoji" font-size="28px" fill="#1e1e1e" text-anchor="start" style="white-space: pre;" direction="ltr" dominant-baseline="text-before-edge">Welcome to </text><text x="0" y="35" font-family="Virgil, Segoe UI Emoji" font-size="28px" fill="#1e1e1e" text-anchor="start" style="white-space: pre;" direction="ltr" dominant-baseline="text-before-edge">my website</text></g><g stroke-linecap="round" transform="translate(1016.548828125 265.865234375) rotate(0 145.603515625 114.904296875)"><path d="M32 0 C107.11 -1.38, 179.7 -0.6, 259.21 0 M32 0 C117.8 2.21, 203.41 0.94, 259.21 0 M259.21 0 C280.91 -1.4, 291.34 12.24, 291.21 32 M259.21 0 C282.44 -0.72, 289.48 11.7, 291.21 32 M291.21 32 C290.14 93.02, 291.96 153.89, 291.21 197.81 M291.21 32 C291.33 74.76, 291.61 115.27, 291.21 197.81 M291.21 197.81 C291.86 220.64, 279.3 231.45, 259.21 229.81 M291.21 197.81 C293.34 218.94, 282.01 228.21, 259.21 229.81 M259.21 229.81 C177.72 230.57, 99.64 227.43, 32 229.81 M259.21 229.81 C174.95 228.55, 91.39 229.05, 32 229.81 M32 229.81 C10.35 229.23, 0.9 220.47, 0 197.81 M32 229.81 C8.95 228.44, 0.18 217.41, 0 197.81 M0 197.81 C-2.59 147.14, -2.53 98.49, 0 32 M0 197.81 C-0.43 159.89, -0.35 120.81, 0 32 M0 32 C1.95 10.3, 10.51 1.27, 32 0 M0 32 C-0.14 9.63, 9.05 0.35, 32 0" stroke="#1e1e1e" stroke-width="1" fill="none"></path></g><g transform="translate(1112.478515625 333.505859375) rotate(0 25.02734375 33.701171875)" stroke="none"><path fill="#1e1e1e" d="M 0.31,1.58 Q 0.31,1.58 -0.98,1.89 -2.28,2.20 -3.34,3.44 -4.40,4.68 -5.65,7.39 -6.89,10.10 -7.48,12.93 -8.06,15.76 -5.77,19.09 -3.49,22.43 -1.29,24.41 0.90,26.38 10.53,27.65 20.16,28.92 25.70,29.24 31.25,29.56 34.51,28.92 37.78,28.27 39.33,26.70 40.88,25.12 41.00,23.57 41.12,22.01 37.77,22.91 34.41,23.82 31.99,25.37 29.57,26.91 27.96,29.97 26.36,33.03 26.38,35.07 26.41,37.10 29.90,39.75 33.38,42.41 36.03,44.51 38.68,46.60 40.18,47.96 41.68,49.32 42.84,50.50 44.01,51.68 44.46,53.31 44.91,54.93 49.45,57.33 53.99,59.72 60.24,60.93 66.49,62.14 72.19,61.91 77.89,61.69 82.52,58.02 87.16,54.35 89.12,52.10 91.09,49.85 90.30,44.87 89.51,39.89 83.60,33.28 77.69,26.67 68.85,22.25 60.01,17.83 50.46,15.41 40.91,12.98 29.60,14.62 18.29,16.25 12.37,17.74 6.45,19.24 0.87,23.73 -4.69,28.23 -7.09,30.24 -9.50,32.25 -7.87,33.90 -6.25,35.55 -3.36,35.81 -0.48,36.07 7.73,31.82 15.95,27.58 21.91,23.39 27.87,19.20 31.08,14.69 34.29,10.18 35.94,6.91 37.59,3.64 37.96,1.65 38.33,-0.33 38.27,-1.28 38.22,-2.22 38.28,-2.40 38.33,-2.58 38.43,-2.74 38.53,-2.90 38.67,-3.03 38.81,-3.16 38.97,-3.26 39.13,-3.35 39.31,-3.41 39.49,-3.46 39.68,-3.47 39.87,-3.48 40.06,-3.44 40.24,-3.41 40.41,-3.33 40.59,-3.25 40.73,-3.13 40.88,-3.01 41.00,-2.86 41.11,-2.71 41.19,-2.54 41.26,-2.36 41.29,-2.18 41.32,-1.99 41.31,-1.80 41.30,-1.61 39.02,-0.03 36.74,1.55 34.22,3.80 31.71,6.04 27.15,11.20 22.59,16.36 19.22,20.71 15.84,25.05 13.83,28.61 11.82,32.16 12.89,36.02 13.96,39.87 18.89,42.27 23.83,44.66 26.58,45.98 29.33,47.30 30.76,48.05 32.19,48.80 32.93,49.91 33.67,51.03 32.36,54.76 31.05,58.49 30.28,60.41 29.51,62.34 29.59,64.85 29.67,67.36 30.16,68.54 30.65,69.72 33.82,70.92 36.98,72.12 45.79,74.57 54.60,77.02 64.92,79.79 75.25,82.55 80.98,83.72 86.70,84.89 88.85,85.06 91.00,85.22 86.29,74.09 81.58,62.97 78.27,54.98 74.95,46.98 70.90,38.28 66.86,29.58 61.82,16.91 56.79,4.24 54.00,-2.63 51.21,-9.51 50.05,-12.53 48.88,-15.54 48.05,-16.13 47.21,-16.72 47.17,-16.91 47.12,-17.09 47.12,-17.29 47.11,-17.48 47.16,-17.67 47.20,-17.86 47.29,-18.03 47.38,-18.20 47.50,-18.35 47.63,-18.50 47.79,-18.61 47.95,-18.72 48.13,-18.79 48.31,-18.86 48.50,-18.89 48.69,-18.91 48.88,-18.89 49.08,-18.87 49.26,-18.80 49.44,-18.74 49.60,-18.63 49.76,-18.52 49.89,-18.38 50.02,-18.23 50.11,-18.06 50.21,-17.89 49.56,-16.43 48.92,-14.97 46.59,-9.80 44.26,-4.64 42.14,0.13 40.01,4.91 38.48,8.82 36.94,12.73 36.16,16.49 35.38,20.25 35.57,22.45 35.75,24.65 42.56,26.24 49.36,27.83 59.42,27.69 69.48,27.55 78.63,26.04 87.78,24.53 93.06,23.34 98.33,22.15 100.79,21.59 103.24,21.04 104.14,20.79 105.05,20.54 105.24,20.52 105.43,20.51 105.62,20.53 105.80,20.56 105.98,20.63 106.16,20.70 106.31,20.81 106.47,20.92 106.59,21.07 106.71,21.21 106.80,21.38 106.88,21.55 106.93,21.74 106.97,21.92 106.96,22.11 106.96,22.31 106.91,22.49 106.86,22.67 106.77,22.84 106.68,23.01 106.55,23.15 106.42,23.29 106.26,23.39 106.10,23.50 105.92,23.56 105.74,23.62 101.07,27.10 96.39,30.57 92.35,33.13 88.31,35.69 80.20,40.62 72.10,45.55 67.69,47.89 63.27,50.24 61.53,51.16 59.78,52.08 59.20,52.44 58.61,52.80 58.43,52.86 58.25,52.93 58.05,52.95 57.86,52.97 57.67,52.94 57.48,52.92 57.30,52.84 57.12,52.77 56.96,52.66 56.80,52.54 56.67,52.40 56.55,52.25 56.46,52.08 56.37,51.90 56.33,51.71 56.29,51.52 56.29,51.33 56.29,51.14 56.34,50.95 56.39,50.76 56.49,50.59 56.58,50.42 56.71,50.28 56.84,50.14 57.01,50.03 57.17,49.92 57.53,49.74 57.90,49.56 58.08,49.54 58.26,49.51 58.44,49.53 58.62,49.54 58.79,49.60 58.97,49.66 59.12,49.76 59.27,49.86 59.40,50.00 59.52,50.13 59.61,50.29 59.70,50.45 59.75,50.63 59.80,50.80 59.81,50.98 59.81,51.17 59.77,51.35 59.73,51.53 59.65,51.69 59.57,51.85 59.45,51.99 59.34,52.14 59.19,52.24 59.04,52.35 58.87,52.42 58.70,52.49 54.20,52.41 49.69,52.34 42.01,52.30 34.32,52.26 14.82,52.24 -4.67,52.22 -14.35,52.21 -24.02,52.20 -29.17,52.19 -34.33,52.18 -36.37,51.89 -38.41,51.60 -38.57,51.58 -38.73,51.56 -38.89,51.50 -39.04,51.44 -39.18,51.35 -39.31,51.25 -39.42,51.13 -39.53,51.01 -39.61,50.86 -39.68,50.72 -39.72,50.56 -39.76,50.40 -39.76,50.23 -39.76,50.07 -39.72,49.91 -39.68,49.75 -39.61,49.60 -39.53,49.46 -39.42,49.33 -39.31,49.21 -39.17,49.12 -39.04,49.02 -38.89,48.97 -38.73,48.91 -38.57,48.89 -38.41,48.87 -37.53,47.07 -36.65,45.27 -34.20,42.17 -31.76,39.07 -25.19,30.80 -18.62,22.53 -15.38,18.10 -12.13,13.67 -10.15,10.57 -8.16,7.47 -7.38,5.99 -6.60,4.50 -6.49,4.36 -6.37,4.22 -6.23,4.11 -6.08,4.01 -5.92,3.94 -5.75,3.87 -5.57,3.84 -5.40,3.81 -5.22,3.83 -5.04,3.84 -4.87,3.90 -4.70,3.96 -4.55,4.06 -4.40,4.15 -4.27,4.28 -4.15,4.41 -4.06,4.57 -3.97,4.73 -3.92,4.90 -3.87,5.07 -3.87,5.25 -3.86,5.43 -3.90,5.61 -3.93,5.78 -4.01,5.94 -4.09,6.11 -6.67,6.11 -9.24,6.12 -11.71,6.61 -14.17,7.10 -22.43,10.67 -30.68,14.23 -37.05,17.36 -43.41,20.49 -47.08,23.09 -50.76,25.69 -52.24,27.26 -53.72,28.84 -49.26,32.45 -44.81,36.05 -39.67,38.23 -34.53,40.41 -27.39,42.71 -20.26,45.01 -15.76,46.85 -11.27,48.70 -8.72,50.42 -6.18,52.15 -4.96,53.18 -3.74,54.21 -2.91,56.43 -2.08,58.66 -1.72,60.52 -1.37,62.39 0.80,66.25 2.98,70.11 5.66,72.63 8.35,75.15 13.43,76.16 18.52,77.18 23.11,76.96 27.70,76.75 34.80,71.88 41.89,67.02 45.37,64.37 48.86,61.73 53.07,54.23 57.28,46.73 59.08,41.06 60.89,35.39 61.47,31.87 62.04,28.34 61.91,26.80 61.78,25.27 61.14,24.26 60.50,23.25 59.34,22.04 58.19,20.84 57.36,18.98 56.54,17.12 56.40,16.05 56.27,14.98 56.66,12.63 57.04,10.27 57.19,9.89 57.33,9.52 57.59,9.20 57.84,8.89 58.18,8.68 58.52,8.47 58.91,8.38 59.31,8.28 59.71,8.32 60.11,8.36 60.47,8.52 60.84,8.69 61.14,8.96 61.43,9.23 61.63,9.58 61.82,9.93 61.89,10.33 61.96,10.72 61.90,11.12 61.85,11.52 61.66,11.88 61.48,12.24 61.19,12.52 60.90,12.80 60.54,12.97 60.18,13.15 59.78,13.20 59.38,13.24 58.99,13.16 58.59,13.08 58.25,12.88 57.90,12.68 57.64,12.38 57.37,12.08 57.22,11.70 57.06,11.33 57.03,10.93 57.01,10.53 57.11,10.14 57.21,9.75 57.43,9.42 57.65,9.08 57.97,8.83 58.28,8.59 58.66,8.45 59.04,8.32 59.44,8.31 59.84,8.31 60.23,8.43 60.61,8.55 60.93,8.79 61.26,9.03 61.49,9.36 61.72,9.69 61.83,10.07 61.94,10.46 61.93,10.86 61.91,11.26 61.91,11.26 61.91,11.26 61.53,12.96 61.15,14.66 61.10,16.01 61.06,17.36 61.71,18.64 62.35,19.92 62.94,20.86 63.53,21.80 64.14,23.44 64.75,25.08 64.71,26.92 64.67,28.77 64.06,32.48 63.44,36.20 61.53,42.13 59.62,48.05 55.09,55.94 50.56,63.82 46.99,66.56 43.43,69.30 35.74,74.39 28.05,79.48 23.00,79.73 17.94,79.99 12.24,78.70 6.53,77.42 3.42,74.54 0.32,71.66 -2.12,67.32 -4.56,62.97 -4.78,61.32 -5.00,59.66 -5.51,58.00 -6.03,56.35 -6.87,55.37 -7.72,54.40 -10.02,52.83 -12.33,51.26 -16.72,49.48 -21.12,47.70 -28.39,45.39 -35.66,43.08 -41.08,40.81 -46.51,38.53 -51.48,34.91 -56.46,31.30 -56.11,29.24 -55.76,27.18 -54.04,25.34 -52.32,23.50 -48.47,20.78 -44.62,18.06 -38.19,14.88 -31.77,11.71 -23.24,8.04 -14.71,4.37 -11.78,3.83 -8.85,3.30 -7.73,3.90 -6.60,4.50 -6.49,4.36 -6.37,4.22 -6.23,4.11 -6.08,4.01 -5.92,3.94 -5.75,3.87 -5.57,3.84 -5.40,3.81 -5.22,3.83 -5.04,3.84 -4.87,3.90 -4.70,3.96 -4.55,4.06 -4.40,4.15 -4.27,4.28 -4.15,4.41 -4.06,4.57 -3.97,4.73 -3.92,4.90 -3.87,5.07 -3.87,5.25 -3.86,5.43 -3.90,5.61 -3.93,5.78 -4.01,5.94 -4.09,6.11 -5.01,7.50 -5.94,8.90 -7.97,12.06 -10.00,15.23 -13.27,19.71 -16.55,24.18 -23.11,32.45 -29.67,40.72 -32.06,43.74 -34.44,46.77 -36.42,49.18 -38.41,51.60 -38.57,51.58 -38.73,51.56 -38.89,51.50 -39.04,51.44 -39.18,51.35 -39.31,51.25 -39.42,51.13 -39.53,51.01 -39.61,50.86 -39.68,50.72 -39.72,50.56 -39.76,50.40 -39.76,50.23 -39.76,50.07 -39.72,49.91 -39.68,49.75 -39.61,49.60 -39.53,49.46 -39.42,49.33 -39.31,49.21 -39.17,49.12 -39.04,49.02 -38.89,48.97 -38.73,48.91 -38.57,48.89 -38.41,48.87 -36.36,49.18 -34.32,49.50 -29.17,49.50 -24.01,49.49 -14.34,49.49 -4.67,49.48 14.82,49.48 34.33,49.48 42.03,49.49 49.73,49.50 53.81,49.53 57.89,49.56 58.08,49.54 58.26,49.51 58.44,49.53 58.62,49.54 58.79,49.60 58.97,49.66 59.12,49.76 59.27,49.86 59.40,50.00 59.52,50.13 59.61,50.29 59.70,50.45 59.75,50.63 59.80,50.80 59.81,50.98 59.81,51.17 59.77,51.35 59.73,51.53 59.65,51.69 59.57,51.85 59.45,51.99 59.34,52.13 59.19,52.24 59.04,52.35 58.87,52.42 58.70,52.49 58.66,52.64 58.61,52.80 58.43,52.86 58.25,52.93 58.05,52.95 57.86,52.97 57.67,52.94 57.48,52.92 57.30,52.84 57.12,52.77 56.96,52.66 56.80,52.55 56.67,52.40 56.55,52.25 56.46,52.08 56.37,51.90 56.33,51.71 56.29,51.52 56.29,51.33 56.29,51.14 56.34,50.95 56.39,50.76 56.49,50.59 56.58,50.42 56.71,50.28 56.84,50.14 57.01,50.03 57.17,49.92 57.85,49.76 58.53,49.59 60.29,48.75 62.04,47.91 66.38,45.61 70.73,43.30 78.81,38.38 86.90,33.46 90.84,30.96 94.79,28.46 99.92,24.50 105.05,20.54 105.24,20.52 105.43,20.51 105.62,20.53 105.80,20.56 105.98,20.63 106.16,20.70 106.31,20.81 106.47,20.92 106.59,21.07 106.71,21.21 106.80,21.38 106.88,21.55 106.93,21.74 106.97,21.92 106.96,22.11 106.96,22.31 106.91,22.49 106.86,22.67 106.77,22.84 106.68,23.01 106.55,23.15 106.42,23.29 106.26,23.39 106.10,23.50 105.92,23.56 105.74,23.62 104.78,23.63 103.82,23.63 101.37,24.18 98.92,24.74 93.57,25.95 88.22,27.16 78.87,28.70 69.52,30.23 59.11,30.34 48.71,30.46 41.47,28.43 34.23,26.40 33.44,23.08 32.65,19.76 33.47,15.74 34.29,11.71 35.81,7.72 37.33,3.74 39.40,-1.07 41.48,-5.88 44.35,-11.30 47.21,-16.72 47.17,-16.91 47.12,-17.09 47.12,-17.29 47.11,-17.48 47.16,-17.67 47.20,-17.86 47.29,-18.03 47.38,-18.20 47.50,-18.35 47.63,-18.50 47.79,-18.61 47.95,-18.72 48.13,-18.79 48.31,-18.86 48.50,-18.89 48.69,-18.91 48.88,-18.89 49.08,-18.87 49.26,-18.80 49.44,-18.74 49.60,-18.63 49.76,-18.52 49.89,-18.38 50.02,-18.23 50.11,-18.06 50.21,-17.89 50.77,-17.27 51.33,-16.66 52.54,-13.60 53.76,-10.55 56.57,-3.66 59.38,3.21 64.41,15.79 69.45,28.37 73.56,37.11 77.67,45.84 81.03,53.78 84.38,61.71 89.35,73.19 94.32,84.67 93.00,86.15 91.68,87.64 88.92,87.64 86.16,87.63 80.34,86.47 74.51,85.31 64.17,82.59 53.82,79.86 44.81,77.40 35.79,74.94 31.98,73.19 28.17,71.44 27.45,69.47 26.72,67.50 26.66,64.41 26.60,61.33 27.31,59.31 28.03,57.29 29.26,54.30 30.49,51.30 29.35,50.48 28.20,49.67 25.41,48.33 22.62,46.99 17.24,44.04 11.86,41.09 10.65,36.26 9.45,31.43 11.61,27.44 13.76,23.45 17.20,19.03 20.63,14.62 25.29,9.35 29.96,4.08 32.64,1.71 35.32,-0.65 36.77,-1.43 38.22,-2.22 38.28,-2.40 38.33,-2.58 38.43,-2.74 38.53,-2.90 38.67,-3.03 38.81,-3.16 38.97,-3.26 39.13,-3.35 39.31,-3.41 39.49,-3.46 39.68,-3.47 39.87,-3.48 40.06,-3.44 40.24,-3.41 40.41,-3.33 40.59,-3.25 40.73,-3.13 40.88,-3.01 41.00,-2.86 41.11,-2.71 41.19,-2.54 41.26,-2.36 41.29,-2.18 41.32,-1.99 41.31,-1.80 41.30,-1.61 41.10,-0.72 40.91,0.16 40.43,2.48 39.95,4.81 38.19,8.26 36.43,11.71 32.92,16.52 29.42,21.32 23.28,25.63 17.14,29.93 8.29,34.29 -0.54,38.64 -4.17,38.10 -7.80,37.57 -9.61,35.65 -11.42,33.73 -8.89,29.94 -6.36,26.16 -0.32,21.42 5.70,16.69 11.81,15.13 17.91,13.58 29.71,11.96 41.50,10.34 51.37,12.85 61.24,15.37 70.49,20.07 79.73,24.77 85.99,32.01 92.24,39.25 92.92,45.13 93.59,51.00 91.33,53.90 89.06,56.79 83.72,60.81 78.38,64.84 72.13,65.21 65.88,65.59 59.19,64.43 52.51,63.26 47.71,61.18 42.90,59.11 41.91,57.48 40.92,55.86 40.90,54.60 40.88,53.34 40.31,52.37 39.74,51.39 38.37,50.06 37.00,48.73 34.32,46.63 31.65,44.54 27.81,41.22 23.98,37.90 23.89,34.88 23.80,31.86 25.83,28.22 27.85,24.58 30.57,22.78 33.30,20.98 36.99,19.67 40.69,18.36 42.20,20.07 43.71,21.78 43.31,24.24 42.92,26.71 40.72,28.76 38.53,30.81 34.82,31.55 31.11,32.30 25.44,31.98 19.77,31.67 9.52,30.15 -0.72,28.62 -3.32,26.32 -5.92,24.03 -8.42,19.92 -10.92,15.80 -10.35,12.30 -9.79,8.80 -8.33,5.60 -6.88,2.40 -5.10,0.64 -3.31,-1.10 -1.81,-1.34 -0.31,-1.58 -0.11,-1.59 0.07,-1.61 0.26,-1.58 0.46,-1.54 0.64,-1.47 0.81,-1.39 0.97,-1.27 1.12,-1.15 1.25,-1.00 1.37,-0.85 1.45,-0.67 1.53,-0.49 1.57,-0.30 1.61,-0.11 1.60,0.07 1.59,0.27 1.53,0.45 1.48,0.64 1.38,0.81 1.28,0.98 1.14,1.12 1.01,1.25 0.84,1.36 0.68,1.46 0.49,1.52 0.31,1.58 0.31,1.58 L 0.31,1.58 Z"></path></g><g stroke-linecap="round" transform="translate(1017.775390625 514.177734375) rotate(0 145.603515625 114.904296875)"><path d="M32 0 C109.89 0.5, 192.33 1.05, 259.21 0 M32 0 C96.18 1.31, 161.56 1.94, 259.21 0 M259.21 0 C280.67 -0.27, 289.51 9.07, 291.21 32 M259.21 0 C280.99 2.13, 291.69 8.59, 291.21 32 M291.21 32 C290.15 67.18, 290.66 103.14, 291.21 197.81 M291.21 32 C291.3 84.98, 291.93 137.79, 291.21 197.81 M291.21 197.81 C291.44 221.14, 280.61 227.9, 259.21 229.81 M291.21 197.81 C291.7 218.53, 281.93 229.15, 259.21 229.81 M259.21 229.81 C196.25 233.15, 132.15 231.25, 32 229.81 M259.21 229.81 C168.62 229.46, 77.43 229.24, 32 229.81 M32 229.81 C12.02 231.54, 0.25 220.16, 0 197.81 M32 229.81 C12.17 227.57, 0.88 219.05, 0 197.81 M0 197.81 C0.44 136.23, 1.78 74.4, 0 32 M0 197.81 C1.54 159.03, 0.99 119.59, 0 32 M0 32 C-1.32 8.83, 12.3 -0.85, 32 0 M0 32 C-2.02 8.97, 12.44 -0.33, 32 0" stroke="#1e1e1e" stroke-width="1" fill="none"></path></g><g transform="translate(1188.115234375 543.673828125) rotate(0 -24.5546875 75.544921875)" stroke="none"><path fill="#1e1e1e" d="M 1.22,0.97 Q 1.22,0.97 -1.35,4.13 -3.92,7.30 -5.93,10.48 -7.94,13.66 -10.32,18.86 -12.71,24.07 -15.87,32.14 -19.02,40.21 -20.83,48.46 -22.65,56.70 -23.42,63.47 -24.19,70.23 -23.64,73.80 -23.09,77.38 -21.25,78.68 -19.40,79.98 -13.87,79.02 -8.34,78.05 -2.73,76.10 2.87,74.15 9.98,68.82 17.09,63.50 20.28,60.96 23.48,58.43 24.55,54.91 25.62,51.40 24.37,49.51 23.12,47.62 18.80,46.40 14.48,45.19 7.58,45.41 0.69,45.64 -7.05,47.65 -14.81,49.66 -23.85,56.67 -32.89,63.67 -36.91,68.53 -40.93,73.40 -41.64,75.66 -42.35,77.93 -39.54,78.82 -36.73,79.71 -35.52,79.64 -34.30,79.58 -33.16,80.10 -32.01,80.63 -31.60,81.73 -31.19,82.83 -29.91,83.16 -28.64,83.48 -28.02,82.29 -27.40,81.09 -27.59,79.29 -27.78,77.50 -28.49,75.71 -29.21,73.92 -32.58,71.51 -35.96,69.10 -39.27,67.36 -42.58,65.61 -48.79,65.25 -55.00,64.89 -61.88,67.57 -68.76,70.26 -74.77,76.12 -80.78,81.99 -83.70,87.51 -86.62,93.03 -85.35,99.80 -84.09,106.58 -79.80,112.27 -75.51,117.97 -65.02,122.70 -54.52,127.43 -45.11,130.97 -35.70,134.51 -21.84,138.50 -7.99,142.49 1.11,144.58 10.21,146.68 20.25,147.01 30.29,147.33 35.48,146.74 40.66,146.14 42.84,142.94 45.03,139.74 45.99,136.02 46.96,132.29 45.80,128.07 44.63,123.85 41.89,118.96 39.14,114.07 34.13,109.13 29.13,104.19 20.57,99.63 12.01,95.07 -3.56,92.40 -19.15,89.72 -31.46,90.50 -43.77,91.27 -52.19,93.20 -60.61,95.12 -66.16,96.68 -71.71,98.24 -74.11,98.81 -76.51,99.37 -77.92,99.41 -79.33,99.44 -80.23,98.71 -81.13,97.98 -81.55,96.72 -81.97,95.47 -81.17,92.43 -80.38,89.38 -79.94,88.04 -79.50,86.70 -79.01,82.91 -78.52,79.12 -78.26,73.45 -78.00,67.79 -77.86,62.84 -77.73,57.89 -77.80,55.54 -77.87,53.20 -79.86,48.75 -81.86,44.29 -83.38,42.54 -84.90,40.79 -86.97,40.90 -89.04,41.01 -90.90,42.03 -92.77,43.05 -94.02,43.99 -95.27,44.94 -95.97,45.95 -96.68,46.96 -96.43,47.25 -96.18,47.55 -96.33,47.73 -96.49,47.91 -96.68,48.05 -96.87,48.19 -97.09,48.28 -97.31,48.38 -97.54,48.41 -97.77,48.45 -98.01,48.43 -98.25,48.40 -98.47,48.33 -98.70,48.25 -98.89,48.12 -99.09,47.99 -99.26,47.82 -99.42,47.65 -99.54,47.44 -99.65,47.24 -99.72,47.01 -99.78,46.78 -99.79,46.54 -99.80,46.30 -99.75,46.07 -99.70,45.84 -99.59,45.63 -99.49,45.41 -98.90,44.99 -98.31,44.57 -97.99,44.55 -97.68,44.52 -97.37,44.60 -97.06,44.67 -96.79,44.84 -96.52,45.02 -96.32,45.26 -96.12,45.51 -96.01,45.81 -95.90,46.11 -95.90,46.43 -95.89,46.75 -95.98,47.05 -96.07,47.35 -96.26,47.61 -96.44,47.87 -96.70,48.06 -96.96,48.24 -97.27,48.34 -97.57,48.43 -97.89,48.42 -98.21,48.41 -98.51,48.30 -98.80,48.19 -99.05,47.99 -99.30,47.79 -99.47,47.53 -99.64,47.26 -99.72,46.95 -99.80,46.64 -99.77,46.32 -99.74,46.01 -99.62,45.71 -99.49,45.42 -99.28,45.18 -99.07,44.95 -98.79,44.79 -98.51,44.63 -98.20,44.57 -97.89,44.51 -97.57,44.56 -97.26,44.60 -96.97,44.74 -96.69,44.88 -96.46,45.11 -96.24,45.33 -96.10,45.62 -95.95,45.90 -95.91,46.22 -95.87,46.53 -95.93,46.85 -95.99,47.16 -96.15,47.44 -96.30,47.71 -96.54,47.93 -96.78,48.14 -96.48,47.84 -96.18,47.55 -96.33,47.73 -96.49,47.91 -96.68,48.05 -96.87,48.19 -97.09,48.28 -97.31,48.38 -97.54,48.41 -97.77,48.45 -98.01,48.43 -98.25,48.40 -98.47,48.33 -98.70,48.25 -98.89,48.12 -99.09,47.99 -99.26,47.82 -99.42,47.65 -99.54,47.44 -99.65,47.24 -99.72,47.01 -99.78,46.78 -99.79,46.54 -99.80,46.30 -99.75,46.07 -99.70,45.84 -99.59,45.63 -99.49,45.41 -99.72,45.13 -99.95,44.85 -98.47,43.62 -96.99,42.38 -95.51,41.49 -94.02,40.60 -91.59,39.43 -89.16,38.25 -86.31,38.41 -83.46,38.56 -81.32,40.81 -79.19,43.06 -77.01,48.02 -74.82,52.98 -74.65,55.46 -74.49,57.94 -74.51,62.92 -74.54,67.90 -74.65,73.71 -74.77,79.53 -75.16,83.81 -75.56,88.10 -76.10,89.46 -76.63,90.81 -77.37,92.79 -78.11,94.77 -77.61,95.79 -77.10,96.81 -74.76,96.26 -72.42,95.72 -66.80,94.14 -61.19,92.56 -52.56,90.61 -43.93,88.65 -31.32,87.89 -18.71,87.13 -2.75,89.94 13.21,92.74 22.08,97.52 30.96,102.31 36.19,107.54 41.42,112.77 44.30,117.97 47.17,123.18 48.34,127.99 49.50,132.80 48.34,137.02 47.18,141.24 44.37,144.84 41.55,148.43 35.88,149.20 30.21,149.98 19.92,149.62 9.62,149.27 0.45,147.15 -8.72,145.04 -22.68,141.03 -36.64,137.01 -46.14,133.44 -55.64,129.87 -66.60,124.78 -77.56,119.69 -82.15,113.43 -86.74,107.17 -87.95,99.63 -89.15,92.10 -85.97,86.04 -82.79,79.97 -76.35,73.77 -69.90,67.57 -62.42,64.71 -54.93,61.85 -48.08,62.28 -41.22,62.71 -37.58,64.52 -33.94,66.32 -29.95,69.27 -25.95,72.21 -24.82,74.62 -23.68,77.03 -23.42,79.91 -23.15,82.79 -24.40,84.87 -25.65,86.94 -27.62,87.44 -29.60,87.94 -31.03,87.37 -32.47,86.80 -33.46,84.88 -34.45,82.96 -35.79,82.80 -37.12,82.64 -40.18,82.06 -43.24,81.48 -44.04,79.54 -44.83,77.60 -43.91,74.69 -42.98,71.79 -38.74,66.69 -34.50,61.59 -25.02,54.37 -15.54,47.15 -7.46,45.08 0.60,43.01 7.91,42.84 15.21,42.67 20.11,44.32 25.00,45.97 26.53,48.72 28.05,51.47 26.66,55.87 25.27,60.27 21.97,62.94 18.67,65.62 11.22,71.12 3.77,76.63 -2.08,78.65 -7.94,80.68 -14.17,81.47 -20.41,82.26 -22.93,80.27 -25.45,78.28 -26.16,74.12 -26.88,69.95 -26.09,63.04 -25.31,56.12 -23.46,47.67 -21.60,39.22 -18.44,31.06 -15.28,22.90 -12.83,17.51 -10.39,12.13 -8.32,8.78 -6.26,5.43 -3.74,2.23 -1.22,-0.97 -1.08,-1.10 -0.95,-1.23 -0.78,-1.33 -0.62,-1.43 -0.44,-1.48 -0.26,-1.53 -0.07,-1.54 0.10,-1.55 0.29,-1.52 0.47,-1.48 0.65,-1.40 0.82,-1.32 0.96,-1.21 1.11,-1.09 1.23,-0.94 1.34,-0.79 1.42,-0.62 1.49,-0.44 1.52,-0.26 1.56,-0.07 1.54,0.10 1.53,0.29 1.47,0.47 1.41,0.65 1.31,0.81 1.21,0.97 1.21,0.97 L 1.22,0.97 Z"></path></g><g stroke-linecap="round" transform="translate(1018.798828125 762.185546875) rotate(0 145.603515625 114.904296875)"><path d="M32 0 C114.21 0.85, 195.07 0.63, 259.21 0 M32 0 C107.84 -0.06, 182.8 0.16, 259.21 0 M259.21 0 C279.71 0.66, 291.75 8.78, 291.21 32 M259.21 0 C279.29 0.87, 291 9.36, 291.21 32 M291.21 32 C294.04 97.81, 292.91 163.94, 291.21 197.81 M291.21 32 C291.07 80.14, 291.49 125.55, 291.21 197.81 M291.21 197.81 C290.66 217.9, 278.76 230.42, 259.21 229.81 M291.21 197.81 C289.67 218.33, 282.04 227.73, 259.21 229.81 M259.21 229.81 C180.08 232.48, 99.38 231.03, 32 229.81 M259.21 229.81 C195.67 231.68, 133.09 231.67, 32 229.81 M32 229.81 C8.78 230.63, 1.11 220.95, 0 197.81 M32 229.81 C12.06 230.43, -1.92 219.26, 0 197.81 M0 197.81 C-0.3 162.44, -1.1 130.7, 0 32 M0 197.81 C1.84 137.5, 0.2 76.04, 0 32 M0 32 C1.07 9.48, 9.98 -1.16, 32 0 M0 32 C-0.43 11.82, 10.38 0.77, 32 0" stroke="#1e1e1e" stroke-width="1" fill="none"></path></g><g transform="translate(1178.330078125 865.255859375) rotate(0 -57.5 6.12109375)" stroke="none"><path fill="#1e1e1e" d="M -0.85,1.30 Q -0.85,1.30 -2.95,-0.11 -5.06,-1.53 -13.20,-4.13 -21.35,-6.72 -29.70,-8.34 -38.05,-9.96 -52.86,-11.05 -67.66,-12.15 -83.21,-11.29 -98.76,-10.44 -112.99,-6.39 -127.22,-2.34 -134.46,0.90 -141.70,4.14 -145.38,10.31 -149.06,16.48 -146.97,23.68 -144.88,30.88 -139.42,36.82 -133.97,42.76 -123.72,47.11 -113.48,51.45 -92.99,53.98 -72.49,56.51 -47.51,49.99 -22.52,43.46 -9.23,37.60 4.05,31.73 11.25,24.90 18.44,18.07 21.78,13.82 25.12,9.56 26.92,3.89 28.71,-1.77 29.49,-6.69 30.28,-11.61 30.03,-14.75 29.79,-17.89 29.26,-19.55 28.73,-21.20 26.50,-20.94 24.27,-20.68 20.89,-17.71 17.51,-14.74 15.09,-11.69 12.68,-8.64 12.54,-5.95 12.39,-3.26 15.54,-2.90 18.68,-2.54 21.35,-3.42 24.02,-4.29 28.20,-8.61 32.38,-12.94 34.48,-16.61 36.59,-20.28 37.32,-23.22 38.05,-26.16 37.73,-27.82 37.42,-29.49 35.94,-30.47 34.47,-31.45 30.85,-30.87 27.23,-30.29 24.29,-29.68 21.34,-29.06 19.80,-28.71 18.25,-28.35 17.96,-24.48 17.67,-20.60 17.56,-13.56 17.44,-6.52 17.37,-2.58 17.30,1.35 17.26,4.26 17.22,7.18 17.31,8.52 17.41,9.87 17.39,10.08 17.36,10.28 17.29,10.47 17.22,10.66 17.10,10.83 16.98,11.00 16.83,11.14 16.67,11.27 16.49,11.37 16.31,11.46 16.11,11.51 15.91,11.56 15.70,11.56 15.50,11.56 15.30,11.51 15.10,11.46 14.92,11.36 14.73,11.27 14.58,11.13 14.43,10.99 14.31,10.82 14.20,10.65 14.12,10.46 14.05,10.27 14.03,10.07 14.00,9.86 14.42,3.88 14.83,-2.10 15.02,-5.71 15.21,-9.32 13.85,-15.58 12.50,-21.84 9.60,-28.58 6.71,-35.32 4.69,-38.99 2.67,-42.67 1.56,-44.32 0.46,-45.98 -1.76,-45.95 -3.98,-45.92 -4.07,-46.08 -4.15,-46.24 -4.19,-46.42 -4.23,-46.59 -4.23,-46.77 -4.23,-46.96 -4.19,-47.13 -4.14,-47.30 -4.06,-47.46 -3.97,-47.62 -3.85,-47.76 -3.73,-47.89 -3.58,-47.99 -3.43,-48.09 -3.26,-48.16 -3.09,-48.22 -2.92,-48.24 -2.74,-48.26 -2.56,-48.24 -2.38,-48.21 -2.21,-48.15 -2.04,-48.08 -1.89,-47.98 -1.75,-47.88 -1.63,-47.74 -1.51,-47.61 -1.90,-46.47 -2.29,-45.34 -2.53,-45.30 -2.77,-45.27 -3.01,-45.31 -3.25,-45.35 -3.46,-45.47 -3.67,-45.59 -3.83,-45.76 -4.00,-45.94 -4.10,-46.16 -4.19,-46.38 -4.22,-46.63 -4.24,-46.87 -4.18,-47.10 -4.13,-47.34 -4.00,-47.54 -3.87,-47.75 -3.69,-47.90 -3.50,-48.06 -3.27,-48.14 -3.05,-48.23 -2.81,-48.24 -2.56,-48.25 -2.33,-48.18 -2.10,-48.11 -1.90,-47.97 -1.70,-47.84 -1.56,-47.64 -1.41,-47.45 -1.34,-47.22 -1.27,-46.98 -1.27,-46.74 -1.27,-46.50 -1.35,-46.27 -1.44,-46.04 -1.58,-45.85 -1.73,-45.66 -1.94,-45.53 -2.14,-45.40 -2.37,-45.34 -2.61,-45.27 -2.85,-45.29 -3.09,-45.31 -3.31,-45.40 -3.54,-45.49 -3.72,-45.65 -3.90,-45.81 -4.02,-46.02 -4.14,-46.23 -4.19,-46.47 -4.24,-46.71 -4.21,-46.95 -4.18,-47.19 -4.08,-47.40 -3.97,-47.62 -3.80,-47.80 -3.63,-47.97 -3.81,-46.95 -3.98,-45.92 -4.07,-46.08 -4.15,-46.24 -4.19,-46.42 -4.23,-46.59 -4.23,-46.77 -4.23,-46.96 -4.19,-47.13 -4.14,-47.30 -4.06,-47.46 -3.97,-47.62 -3.85,-47.76 -3.73,-47.89 -3.58,-47.99 -3.43,-48.09 -3.26,-48.16 -3.09,-48.22 -2.92,-48.24 -2.74,-48.26 -2.56,-48.24 -2.38,-48.21 -2.21,-48.15 -2.04,-48.08 -1.89,-47.98 -1.75,-47.88 -1.63,-47.74 -1.51,-47.61 0.54,-47.63 2.59,-47.66 3.85,-45.84 5.10,-44.02 7.22,-40.23 9.33,-36.45 12.34,-29.46 15.35,-22.48 16.80,-15.85 18.25,-9.22 18.14,-5.55 18.02,-1.88 17.72,3.99 17.41,9.87 17.39,10.08 17.36,10.28 17.29,10.47 17.22,10.66 17.10,10.83 16.98,11.00 16.83,11.14 16.67,11.27 16.49,11.37 16.31,11.46 16.11,11.51 15.91,11.56 15.70,11.56 15.50,11.56 15.30,11.51 15.10,11.46 14.92,11.36 14.73,11.27 14.58,11.13 14.43,10.99 14.31,10.82 14.20,10.65 14.12,10.46 14.05,10.27 14.03,10.07 14.00,9.86 14.11,8.51 14.21,7.17 14.19,4.25 14.16,1.34 14.14,-2.60 14.11,-6.54 14.09,-13.64 14.08,-20.74 14.13,-24.00 14.18,-27.25 14.83,-28.92 15.48,-30.59 16.58,-31.09 17.68,-31.59 19.19,-31.77 20.71,-31.95 23.55,-32.60 26.38,-33.25 30.05,-34.18 33.71,-35.11 34.93,-34.37 36.15,-33.63 38.02,-32.02 39.89,-30.42 40.32,-28.00 40.74,-25.59 39.90,-22.24 39.06,-18.89 36.76,-14.91 34.47,-10.92 29.79,-6.22 25.11,-1.52 22.05,-0.46 18.98,0.59 15.30,0.83 11.61,1.08 10.49,-1.16 9.37,-3.41 9.70,-6.86 10.03,-10.31 12.64,-13.81 15.25,-17.30 19.19,-20.74 23.13,-24.18 25.28,-24.72 27.44,-25.26 28.74,-24.78 30.05,-24.31 30.75,-23.16 31.44,-22.02 31.93,-20.05 32.41,-18.09 32.64,-14.65 32.87,-11.21 32.04,-6.09 31.21,-0.96 29.21,5.08 27.22,11.14 23.73,15.56 20.25,19.98 12.70,27.05 5.15,34.11 -8.34,40.06 -21.85,46.01 -47.30,52.57 -72.75,59.13 -93.62,56.51 -114.49,53.89 -125.17,49.24 -135.84,44.60 -141.61,38.15 -147.38,31.69 -149.41,23.72 -151.43,15.75 -147.22,8.82 -143.02,1.88 -135.49,-1.52 -127.96,-4.93 -113.45,-9.04 -98.93,-13.16 -83.20,-14.03 -67.47,-14.91 -52.50,-13.82 -37.52,-12.73 -29.00,-11.10 -20.47,-9.48 -11.96,-6.76 -3.45,-4.04 -1.29,-2.67 0.85,-1.30 1.00,-1.18 1.14,-1.06 1.25,-0.91 1.36,-0.75 1.43,-0.58 1.50,-0.40 1.53,-0.22 1.56,-0.03 1.54,0.15 1.52,0.33 1.46,0.51 1.39,0.69 1.29,0.85 1.19,1.00 1.05,1.13 0.91,1.26 0.75,1.35 0.58,1.44 0.40,1.49 0.22,1.54 0.03,1.55 -0.15,1.55 -0.33,1.51 -0.51,1.47 -0.68,1.38 -0.85,1.30 -0.85,1.30 L -0.85,1.30 Z"></path></g><g transform="translate(1106.283203125 821.740234375) rotate(0 102.216796875 68.134765625)" stroke="none"><path fill="#1e1e1e" d="M 1.61,0 Q 1.61,0 1.70,1.34 1.79,2.69 1.73,6.11 1.66,9.53 1.61,11.92 1.56,14.31 1.53,24.24 1.49,34.18 1.47,44.26 1.44,54.35 1.43,64.51 1.41,74.66 2.20,85.47 2.99,96.28 3.96,104.78 4.93,113.27 5.35,118.30 5.76,123.33 6.12,126.31 6.48,129.29 6.70,131.16 6.91,133.04 7.17,134.20 7.44,135.36 7.43,135.58 7.42,135.79 7.36,136.00 7.29,136.20 7.19,136.39 7.08,136.58 6.93,136.73 6.78,136.88 6.60,137.00 6.41,137.11 6.21,137.18 6.01,137.24 5.79,137.26 5.58,137.28 5.37,137.24 5.15,137.20 4.96,137.12 4.76,137.03 4.59,136.90 4.42,136.77 4.28,136.61 4.15,136.44 4.06,136.24 3.97,136.05 3.92,135.84 3.88,135.63 4.43,134.64 4.97,133.66 5.94,132.60 6.92,131.54 8.57,130.25 10.22,128.96 12.37,127.59 14.52,126.23 24.76,119.42 35.00,112.61 40.44,108.64 45.88,104.67 59.19,93.69 72.50,82.70 89.12,67.08 105.74,51.46 117.05,40.59 128.35,29.72 134.27,24.00 140.18,18.28 143.18,15.17 146.17,12.07 147.41,10.62 148.64,9.18 149.20,8.49 149.77,7.80 149.92,7.67 150.07,7.53 150.25,7.44 150.42,7.35 150.62,7.30 150.82,7.25 151.02,7.25 151.22,7.25 151.41,7.30 151.61,7.35 151.79,7.44 151.96,7.54 152.11,7.67 152.27,7.81 152.38,7.97 152.49,8.14 152.56,8.33 152.64,8.51 152.66,8.71 152.68,8.91 152.66,9.11 152.63,9.31 152.56,9.50 152.49,9.69 152.38,9.85 152.26,10.02 154.67,13.90 157.08,17.77 160.76,25.13 164.44,32.49 170.24,42.14 176.03,51.80 180.51,58.73 184.98,65.66 189.95,72.34 194.91,79.02 197.72,82.56 200.53,86.10 201.76,87.72 202.99,89.34 203.80,90.15 204.61,90.95 204.85,91.09 205.09,91.23 205.20,91.40 205.31,91.58 205.38,91.77 205.44,91.97 205.46,92.18 205.47,92.39 205.44,92.59 205.40,92.80 205.32,92.99 205.24,93.18 205.11,93.34 204.99,93.51 204.82,93.64 204.66,93.77 204.47,93.85 204.29,93.94 204.08,93.98 203.88,94.02 203.67,94.01 203.46,94.00 203.27,93.94 203.07,93.89 202.89,93.78 202.71,93.68 202.56,93.53 202.41,93.39 201.08,91.17 199.75,88.95 198.83,87.85 197.91,86.75 189.80,80.52 181.69,74.29 171.07,67.12 160.46,59.95 154.56,56.05 148.67,52.16 129.81,41.68 110.96,31.19 98.52,24.27 86.08,17.35 77.72,13.14 69.35,8.93 64.45,6.87 59.55,4.81 56.07,3.46 52.58,2.10 52.36,1.96 52.15,1.82 51.98,1.62 51.82,1.42 51.73,1.18 51.64,0.93 51.63,0.67 51.62,0.41 51.70,0.16 51.78,-0.08 51.93,-0.29 52.08,-0.50 52.29,-0.65 52.50,-0.80 52.75,-0.88 53.00,-0.96 53.26,-0.95 53.52,-0.94 53.76,-0.85 54.01,-0.76 54.21,-0.60 54.41,-0.44 54.55,-0.22 54.69,-0.00 54.76,0.24 54.82,0.49 54.80,0.75 54.78,1.01 54.67,1.25 54.57,1.49 54.40,1.68 54.23,1.88 54.00,2.01 53.77,2.13 53.52,2.18 53.26,2.23 53.00,2.20 52.75,2.16 52.51,2.05 52.28,1.93 52.10,1.75 51.91,1.57 51.80,1.33 51.68,1.10 51.65,0.84 51.61,0.59 51.66,0.33 51.71,0.07 51.84,-0.14 51.96,-0.37 52.16,-0.54 52.35,-0.72 52.59,-0.82 52.83,-0.92 53.09,-0.94 53.35,-0.97 53.60,-0.90 53.85,-0.84 53.85,-0.84 53.85,-0.84 57.22,0.73 60.59,2.31 65.59,4.39 70.58,6.47 79.01,10.69 87.43,14.91 99.89,21.80 112.34,28.70 131.31,39.20 150.27,49.70 156.22,53.56 162.16,57.42 172.90,64.58 183.63,71.75 192.14,78.22 200.64,84.70 201.49,85.99 202.33,87.28 203.71,89.25 205.09,91.23 205.20,91.40 205.31,91.58 205.38,91.77 205.44,91.97 205.46,92.18 205.47,92.39 205.44,92.59 205.40,92.79 205.32,92.99 205.24,93.18 205.11,93.34 204.99,93.51 204.82,93.64 204.66,93.77 204.47,93.85 204.29,93.94 204.08,93.98 203.88,94.02 203.67,94.01 203.46,94.00 203.27,93.94 203.07,93.89 202.89,93.78 202.71,93.68 202.56,93.53 202.41,93.39 202.25,93.19 202.09,93.00 201.44,91.99 200.78,90.98 199.61,89.37 198.44,87.75 195.60,84.18 192.76,80.61 187.74,73.87 182.72,67.13 178.21,60.16 173.70,53.20 167.84,43.46 161.98,33.72 158.28,26.38 154.58,19.04 152.17,13.42 149.77,7.80 149.92,7.67 150.07,7.53 150.25,7.44 150.42,7.35 150.62,7.30 150.81,7.25 151.02,7.25 151.22,7.25 151.41,7.30 151.61,7.35 151.79,7.44 151.96,7.54 152.11,7.67 152.27,7.81 152.38,7.97 152.49,8.14 152.56,8.32 152.64,8.51 152.66,8.71 152.68,8.91 152.66,9.11 152.63,9.31 152.56,9.50 152.49,9.69 152.38,9.85 152.26,10.02 151.52,10.55 150.78,11.09 149.45,12.52 148.13,13.95 145.11,17.10 142.09,20.24 136.19,25.98 130.28,31.73 118.99,42.63 107.69,53.53 91.03,69.24 74.36,84.96 61.02,96.04 47.68,107.12 42.23,111.19 36.78,115.26 26.59,122.16 16.41,129.05 14.48,130.43 12.55,131.81 11.11,133.05 9.67,134.30 8.55,134.83 7.44,135.36 7.43,135.58 7.42,135.79 7.36,136.00 7.29,136.20 7.19,136.39 7.08,136.58 6.93,136.73 6.78,136.88 6.60,137.00 6.41,137.11 6.21,137.18 6.01,137.24 5.79,137.26 5.58,137.28 5.37,137.24 5.15,137.20 4.96,137.12 4.76,137.03 4.59,136.90 4.42,136.77 4.28,136.61 4.15,136.44 4.06,136.24 3.97,136.05 3.92,135.84 3.88,135.63 3.96,134.46 4.03,133.28 3.93,131.45 3.82,129.61 3.45,126.58 3.07,123.55 2.64,118.57 2.22,113.59 1.23,105.03 0.23,96.48 -0.58,85.57 -1.41,74.66 -1.43,64.51 -1.44,54.35 -1.47,44.26 -1.49,34.18 -1.53,24.24 -1.56,14.31 -1.61,11.92 -1.66,9.53 -1.73,6.11 -1.79,2.69 -1.70,1.34 -1.61,0 -1.58,-0.19 -1.56,-0.38 -1.49,-0.56 -1.42,-0.74 -1.31,-0.90 -1.20,-1.06 -1.06,-1.19 -0.91,-1.32 -0.74,-1.41 -0.57,-1.50 -0.38,-1.55 -0.19,-1.60 0.00,-1.60 0.19,-1.60 0.38,-1.55 0.57,-1.50 0.74,-1.41 0.91,-1.32 1.06,-1.19 1.20,-1.06 1.31,-0.90 1.42,-0.74 1.49,-0.56 1.56,-0.38 1.58,-0.19 1.61,0.00 1.61,0.00 L 1.61,0 Z"></path></g><g transform="translate(38.24609375 96.16796875) rotate(0 144.17193603515625 17.5)"><text x="0" y="0" font-family="Virgil, Segoe UI Emoji" font-size="28px" fill="#1e1e1e" text-anchor="start" style="white-space: pre;" direction="ltr" dominant-baseline="text-before-edge">Responsive Developer</text></g><g transform="translate(1064.4960327148438 100.73828125) rotate(0 102.97989654541016 12.5)"><text x="0" y="0" font-family="Virgil, Segoe UI Emoji" font-size="20px" fill="#1e1e1e" text-anchor="start" style="white-space: pre;" direction="ltr" dominant-baseline="text-before-edge">Responsive Developer</text></g></svg>